<?xml version="1.0" encoding="utf-8"?>
<!-- Generator: Adobe Illustrator 23.1.1, SVG Export Plug-In . SVG Version: 6.00 Build 0)  -->
<svg version="1.1" id="Camada_1" xmlns="http://www.w3.org/2000/svg" xmlns:xlink="http://www.w3.org/1999/xlink" x="0px" y="0px"
	 viewBox="0 0 2653.33 1866.67" style="enable-background:new 0 0 2653.33 1866.67;" xml:space="preserve">
<style type="text/css">
	.st0{fill:#3F4040;}
	.st1{font-family:'DINCondensed-Bold';}
	.st2{font-size:117.3436px;}
	.st3{fill:none;}
	.st4{fill-rule:evenodd;clip-rule:evenodd;fill:#3F4040;}
</style>
<g>
	<text transform="matrix(1 0 0 1 1065.2666 1310.9912)" class="st0 st1 st2">DESDE 2021</text>
	<g>
		<path id="SVGID_x5F_1_x5F_" class="st3" d="M1849.17,946.15c4.13,315.23-248.06,574.12-563.29,578.25
			c-315.23,4.13-574.12-248.06-578.25-563.29s248.06-574.12,563.29-578.25C1586.15,378.73,1845.04,630.92,1849.17,946.15z"/>
		<text>		<textPath  xlink:href="#SVGID_x5F_1_x5F_" startOffset="87.5977%">
<tspan  class="st0" style="font-family:'Rainbow'; font-size:145.6369px; letter-spacing:400;">PIZZARIA</tspan>		</textPath>
</text>
	</g>
	<g>
		<path class="st0" d="M325.25,803.36h29.3c1.35,0,3.69,9.66,7.02,28.99c3.32,19.33,7.9,48.32,13.73,86.97
			c1.9,13.16,3.63,22.96,5.19,29.4c1.55,6.44,2.67,9.66,3.36,9.66c15.46-103.36,24.41-155.03,26.86-155.03h30.52
			c1.63,0.27,2.44,1.09,2.44,2.44v279.55c0,1.63-0.82,2.44-2.44,2.44h-26.86c-1.63,0-2.44-0.82-2.44-2.44V948.63h-1.22
			c-8,92.78-12.89,139.17-14.65,139.17h-25.63c-2.71,0-8.01-47.2-15.87-141.61h-1.22v139.17c0,1.63-0.81,2.44-2.44,2.44h-25.63
			c-1.63,0-2.44-0.82-2.44-2.44V805.81C322.94,804.18,323.75,803.36,325.25,803.36z"/>
		<path class="st0" d="M582.74,803.36h30.51c2.58,0,8.28,42.32,17.09,126.95c0.82,0,7.33,52.09,19.53,156.26l-2.44,1.22h-28.08
			c-3.12,0-6.38-18.72-9.76-56.15h-21.98c-4.34,37.43-7.19,56.15-8.54,56.15h-29.3c-1.63,0-2.44-0.82-2.44-2.44
			C569.44,897.36,581.24,803.36,582.74,803.36z M598.61,929.1h-1.22c0,10.04-2.04,32.83-6.11,68.36h13.43
			C604.71,989.19,602.68,966.4,598.61,929.1z"/>
		<path class="st0" d="M783.47,803.16h27.67c19.94,4.07,29.91,14.04,29.91,29.91v51.68c0,1.63-0.81,2.44-2.44,2.44h-28.69
			c-1.22,0-2.44-1.22-3.66-3.66v-45.58h-19.12v91.15h25.02c19.26,4.88,28.89,14.44,28.89,28.69v100.89
			c-4.07,19.55-14.04,29.32-29.91,29.32h-27.67c-19.94-3.78-29.91-13.21-29.91-28.31v-52.67c0.13-1.63,0.88-2.43,2.24-2.43h28.89
			c1.63,0.27,2.44,1.08,2.44,2.43v46.8h19.12v-91.15h-24.01c-19.12-4.47-28.69-14.04-28.69-28.69V832.05
			C753.56,817.27,763.53,807.64,783.47,803.16z"/>
		<path class="st0" d="M976.26,803.16h27.67c19.94,4.07,29.91,14.04,29.91,29.91v51.68c0,1.63-0.81,2.44-2.44,2.44h-28.69
			c-1.22,0-2.44-1.22-3.66-3.66v-45.58h-19.12v91.15h25.02c19.26,4.88,28.89,14.44,28.89,28.69v100.89
			c-4.07,19.55-14.04,29.32-29.91,29.32h-27.67c-19.94-3.78-29.91-13.21-29.91-28.31v-52.67c0.13-1.63,0.88-2.43,2.24-2.43h28.89
			c1.63,0.27,2.44,1.08,2.44,2.43v46.8h19.12v-91.15h-24.01c-19.12-4.47-28.69-14.04-28.69-28.69V832.05
			C946.35,817.27,956.32,807.64,976.26,803.16z"/>
		<path class="st0" d="M1174.55,803.36h30.51c2.58,0,8.28,42.32,17.09,126.95c0.82,0,7.33,52.09,19.53,156.26l-2.44,1.22h-28.08
			c-3.12,0-6.38-18.72-9.76-56.15h-21.98c-4.34,37.43-7.19,56.15-8.54,56.15h-29.3c-1.63,0-2.44-0.82-2.44-2.44
			C1161.25,897.36,1173.05,803.36,1174.55,803.36z M1190.41,929.1h-1.22c0,10.04-2.04,32.83-6.11,68.36h13.43
			C1196.52,989.19,1194.49,966.4,1190.41,929.1z"/>
	</g>
	<g>
		<path class="st0" d="M1381.84,802.75h28.08c3.25,0,7.32,17.09,12.21,51.27c2.44,7.32,8.54,39.06,18.32,95.22h1.21V806.42
			c0-0.95,1.23-2.17,3.67-3.66h24.4c1.23,0,2.44,1.22,3.67,3.66v278.33c0,1.36-1.23,2.44-3.67,3.26h-26.85
			c-1.92,0-3.97-6.13-6.21-18.41c-2.24-12.27-5.87-30.83-10.88-55.64c-1.49-7.73-3.6-17.77-6.31-30.11
			c-2.71-12.34-5.49-27.53-8.34-45.58h-1.22v146.49c0,1.36-1.22,2.44-3.66,3.26h-24.41c-1.49,0-2.71-1.08-3.66-3.26V806.42
			C1378.17,805.47,1379.39,804.25,1381.84,802.75z"/>
		<path class="st0" d="M1618.57,802.75h4.88c20.49,0,33.51,6.51,39.07,19.53c1.63,5.29,2.44,8.95,2.44,10.99v224.62
			c0,16.68-10.99,26.72-32.96,30.11h-13.42c-27.67,0-41.51-12.47-41.51-37.43V840.6C1577.07,815.37,1590.9,802.75,1618.57,802.75z
			 M1612.47,1053.01h18.31V838.16h-18.31V1053.01z"/>
		<path class="st0" d="M1773.53,803.77H1825c22.11,2.98,33.16,12.82,33.16,29.5v97.45c0,8.95-1.22,13.84-3.66,14.65
			c2.44,3.94,3.66,9.23,3.66,15.87v97.46c0,16.55-11.05,26.32-33.16,29.3h-51.47c-1.22,0-2.51-1.22-3.87-3.66v-276.9
			C1769.67,806.35,1770.95,805.13,1773.53,803.77z M1805.27,928.29h18.31v-90.33h-18.31V928.29z M1805.27,1054.02h18.31v-90.54
			h-18.31V1054.02z"/>
		<path class="st0" d="M1966.32,802.75h42.72c21.29,0,34.31,6.51,39.07,19.53c0.95,2.71,1.59,4.95,1.93,6.71
			c0.33,1.77,0.51,3.19,0.51,4.27v100.1c0,5.57-3.26,12.89-9.77,21.98c9.77,82.6,14.65,126.55,14.65,131.83l-2.44,0.82h-28.08
			c-3.53,0-6.38-16.14-8.55-48.42c-0.81,0-4.07-25.63-9.77-76.91h-8.54v122.07c0,1.36-1.22,2.44-3.66,3.26h-28.08
			c-1.49,0-2.71-1.08-3.66-3.26V806.42C1962.66,805.47,1963.88,804.25,1966.32,802.75z M1998.06,928.49h18.31v-90.33h-18.31V928.49z
			"/>
		<path class="st0" d="M2161.56,803.36h69.58c1.63,0.27,2.43,1.09,2.43,2.44v29.3c0,1.63-0.81,2.44-2.43,2.44h-37.84v91.56h31.74
			c1.63,0.27,2.44,1.08,2.44,2.44v29.3c0,1.63-0.82,2.44-2.44,2.44h-31.74v90.33h37.84c1.63,0.27,2.43,1.09,2.43,2.44v29.3
			c0,1.63-0.81,2.44-2.43,2.44h-69.58c-1.63,0-2.44-0.82-2.44-2.44V805.81C2159.25,804.18,2160.06,803.36,2161.56,803.36z"/>
	</g>
	<g>
		<path id="SVGID_x5F_2_x5F_" class="st3" d="M1946.75,986.2c17.99-369.12-266.65-682.93-635.77-700.92S628.05,551.93,610.06,921.05
			s266.65,682.93,635.77,700.92C1614.95,1639.97,1928.76,1355.32,1946.75,986.2z"/>
		<text>		<textPath  xlink:href="#SVGID_x5F_2_x5F_" startOffset="84.2367%">
<tspan  class="st0" style="font-family:'Rainbow'; font-size:111.8353px; letter-spacing:200;">DELIVERY &amp; TAKEAWAY</tspan>		</textPath>
</text>
	</g>
	<circle class="st0" cx="755.92" cy="599.05" r="20.64"/>
	<circle class="st0" cx="1786.86" cy="599.05" r="20.64"/>
	<circle class="st0" cx="755.92" cy="1323.4" r="20.64"/>
	<circle class="st0" cx="1786.86" cy="1323.4" r="20.64"/>
	<g>
		<path class="st4" d="M1176.22,629.79c-0.19-0.9,0.13-1.48,0.93-1.76c1.16-0.39,1.88,0.15,2.19,1.64l-0.13,0.28l-2.76,0.95
			L1176.22,629.79z M1183.88,608.5c-0.06-0.3,0.13-1.16,0.59-2.59l2.4,1.81l-0.59,1.63l-0.35,0.13c-0.11,0.03-0.72-0.24-1.83-0.81
			L1183.88,608.5z M1176.07,615.48c-0.24-1.19,0.04-1.93,0.84-2.21c0.12-0.03,0.53-0.01,1.22,0.07c0.69,0.08,1.67,0.22,2.95,0.42
			l-2.21,4.59l-0.3,0.35c-0.24,0.08-0.85-0.2-1.83-0.81c-0.24-0.57-0.39-0.99-0.45-1.29
			C1176.2,616.15,1176.13,615.78,1176.07,615.48z M1169.87,628.62c-0.25-1.19,0.04-1.93,0.85-2.21c1.15-0.39,1.86,0.07,2.14,1.42
			l0.09,0.45c-0.74,1.21-1.16,1.84-1.27,1.87l-0.39-0.09C1170.4,629.39,1169.94,628.92,1169.87,628.62z M1173.62,621.59
			c0.62-1.17,0.99-1.78,1.11-1.82l0.52-0.17l-0.53,2.81L1173.62,621.59z M1179.73,597.23l0.86-0.29l-0.63,1.4L1179.73,597.23z
			 M1167.64,623.16c-0.03-0.15,0.18-0.94,0.63-2.37l2.4,1.81l-0.63,1.41l-0.34,0.12c-0.11,0.04-0.31-0.02-0.59-0.16
			c-0.28-0.15-0.68-0.29-1.2-0.43L1167.64,623.16z M1173.5,611.1l0.23,1.12l-1.27-0.77L1173.5,611.1z M1178.45,590.96l1.15,1.05
			l-0.64,1.42l-1.26-0.76L1178.45,590.96z M1174.27,585.94c1.61-0.55,2.51-1.26,2.7-2.12l1.1,0.82c-0.05,0.97-0.48,1.61-1.29,1.88
			l-2.25,0.77L1174.27,585.94z M1233.89,516.9v-1.59l1.24,1.59H1233.89z M1185.14,518.81l2.71-1.91l0.25,0.63
			c0,0.42-0.49,1.38-1.48,2.87L1185.14,518.81z M1178.5,515.31c-0.99-1.71-1.48-2.66-1.48-2.86l0.25-0.64l2.7,3.51H1178.5z
			 M1185.14,530.91l1.48-1.59l1.23,1.59l-1.23,1.91L1185.14,530.91z M1171.85,534.41v-1.6l1.23,1.6H1171.85z M1170.37,544.92
			l1.48-1.92l1.23,1.92l-1.23,1.59L1170.37,544.92z M1227.85,591.4v-1.59l1.23,3.18L1227.85,591.4z M1231.8,603.5l2.7-1.59v0.63
			c0,0.22-0.49,1.17-1.47,2.86L1231.8,603.5z M1217.01,607.01c-0.98-0.21-1.48-1.06-1.48-2.55c0-1.49,0.5-2.33,1.48-2.54l1.24,1.59
			l0.24,0.96C1218.5,604.46,1218,605.31,1217.01,607.01z M1210.86,616.56v-2.55h1.97v2.55H1210.86z M1205.44,609.56v-2.55h1.97v2.55
			H1205.44z M1167.28,565.39c0.26,0.53,0.8,0.79,1.57,0.87c0.77,0.08,1.32,0.34,1.58,0.87l-0.76,0.81c-0.65-0.48-1.07-0.69-1.5-0.72
			c-0.43-0.03-0.67-0.3-0.96-0.91L1167.28,565.39z M1233.51,611.88c-0.07-0.18-0.5-0.46-1.16-0.73l-0.55-1.32l-0.89-0.06l-0.84-0.9
			l-0.62-0.55l0.08-0.77c0.2,0.48,0.53,0.72,1.05,0.83c0.43,0.08,0.83,0.49,1.11,1.15c0.49-0.15,0.89,0.07,1.16,0.73l0.13,0.3
			c1.04,0.42,1.61,0.86,1.81,1.34c0.08,0.18-0.01,0.34-0.22,0.41L1233.51,611.88z M1227.39,606.37l1.11-0.34l0.15,0.36
			c0.17,0.42-0.01,0.75-0.49,0.89c-0.1-0.24-0.25-0.4-0.43-0.47C1227.56,606.79,1227.49,606.61,1227.39,606.37z M1221.35,600.1
			c0.09,0.24,0.24,0.4,0.48,0.59c0.17,0.22,0.37,0.5,0.54,0.92l-0.77,0.24c-0.07-0.19-0.15-0.36-0.34-0.44
			c-0.19-0.08-0.35-0.29-0.53-0.71C1220.91,600.37,1221.07,600.18,1221.35,600.1z M1216.69,599.28c-0.17-0.42-0.16-0.77,0.02-1.09
			c-0.1-0.24-0.05-0.33,0.09-0.37c0.07-0.02,0.09-0.16-0.01-0.4c-0.07-0.18,0.02-0.35,0.3-0.43l0.12,0.3
			c0.1,0.24,0.28,0.32,0.7,0.19c0.35-0.11,0.58-0.11,0.69,0.13l0.39,0.96l1.04,0.43l-0.49,0.9c-0.36-0.1-0.76-0.31-1.3-0.49
			C1217.74,599.16,1217.24,599.11,1216.69,599.28z M1232.69,594.41c-0.49,0.14-0.91,0.27-1.38,0.28c-0.4-0.01-0.98,0.1-1.75,0.33
			c-1.42-0.58-2.52-0.58-3.47-0.02c-0.69-0.33-1.06-0.28-1.06-0.08c-0.04,0.28-0.34,0.51-0.83,0.65c-0.37-0.15-0.56-0.23-0.7-0.19
			c-0.14,0.05-0.4-0.02-0.69-0.13l-2.11,0.24c-0.56-0.03-1.14,0.08-1.73,0.39c-0.6,0.25-1.05,0.12-1.32-0.55
			c0,0,0.63-0.19,1.89-0.57c0.55-0.17,0.72-0.36,0.61-0.59l1.33,0l0.2-0.47c1.05-0.32,1.54-0.47,1.54-0.47l-0.25-0.6
			c-0.1-0.24-0.29-0.32-0.57-0.23c-0.21,0.06-0.45-0.13-0.62-0.56l-0.13-0.3c0.49-0.14,0.89-0.13,1.18,0.19
			c0.19,0.28,0.58,0.64,1.03,0.97c0.98-0.3,2.15-0.12,3.48,0.63c1.23,0.71,3.13,0.53,5.57-0.41l0.77-0.24
			c0.56-0.17,0.74-0.5,0.71-0.96c-0.06-0.52,0.14-0.79,0.7-0.96l0.47,0.2c0.2,0.48-0.09,1.11-0.92,1.97
			c-0.02,0.02-0.04,0.04-0.06,0.07h1.12v2.86h-1.97v-2.06C1233.38,594.1,1233.01,594.31,1232.69,594.41z M1215.35,596.04l-0.15-0.36
			l0.77-0.24l1.19-0.37c-0.36,0.66-0.64,0.94-0.92,1.02C1215.96,595.99,1215.63,595.95,1215.35,596.04z M1224.36,566.71
			c0.48,0.6,0.99,1.46,1.44,2.53c0.44,1.09,0.43,1.84,0.04,2.22c-0.2-0.48-0.46-0.94-0.83-1.44c-0.29-0.52-0.56-0.98-0.76-1.46
			C1223.91,567.73,1223.9,567.12,1224.36,566.71z M1220.39,567.58l0.42-0.12c-0.2-0.48-0.48-0.6-0.9-0.47
			c-0.35,0.1-0.61,0.05-0.71-0.19l-0.12-0.3c0.48-0.15,0.91-0.07,1.17,0.19c0.29,0.31,0.62,0.35,1.11,0.2
			c0.77-0.24,1.11-0.54,0.92-1.02l-1.05-0.43c0.32-0.57,0.42-1.07,0.25-1.49c-0.38-0.16-0.84-0.9-1.39-2.22
			c-0.44-1.08-1.1-2.1-2.1-3.01c-0.94-0.93-1.59-1.95-2.06-3.09c-0.08-0.18-0.27-0.26-0.55-0.17c0.04-1.23-0.39-2.11-1.44-2.54
			c0.21-0.06,0.13-0.64-0.32-1.73l0.42-0.12c0.21-0.06,0.47,0.19,0.75,0.86l0.35-0.11l0.15,0.37l0.55,0.17
			c0.64,1.56,1.71,3.4,3.4,5.6c1.62,2.21,2.76,4.23,3.48,5.97c0.17,0.42,0.33,0.99,0.41,1.57c0.15,0.56,0.28,1.06,0.46,1.49
			C1222.95,566.94,1221.93,567.11,1220.39,567.58z M1215.05,566.98l-0.79,0.24l-0.12-0.3c-0.1-0.25,0.06-0.43,0.62-0.6l0.29,0.26
			v-1.29h1.96v1.51c0.09-0.09,0.21-0.15,0.38-0.2l0.15,0.36c0.17,0.42,0.2,0.69-0.09,0.77c-0.21-0.09-0.35-0.15-0.44-0.19v0.3h-1.96
			V566.98z M1208.4,557.16c-0.07-0.18,0.02-0.34,0.22-0.41c0.77-0.23,1.29-0.12,1.46,0.3c-0.55,0.17-0.88,0.34-1.11,0.54
			c-0.18,0.12-0.44,0.27-0.72,0.36l-0.7,0.21C1207.87,557.6,1208.12,557.25,1208.4,557.16z M1220.08,553.27c0,0-0.35,0.11-1.12,0.34
			c-0.66-0.07-0.89-0.06-0.89-0.06c0.39-0.39,0.62-0.6,0.62-0.6C1219.46,552.71,1219.91,552.85,1220.08,553.27z M1224.65,550.8
			l0.47,0.19c0.17,0.42,0.07,0.73-0.49,0.89l-0.35,0.1l-0.12-0.3C1223.95,551.21,1224.16,550.94,1224.65,550.8z M1222.07,549.69
			c0.21-0.07,0.54-0.03,0.92,0.12c-0.7,0.42-1.04,0.93-1.01,1.39c0.11,0.44-0.42,0.87-1.4,1.17c-0.17-0.42-0.06-0.93,0.44-1.62
			C1221.47,550.14,1221.79,549.77,1222.07,549.69z M1196.6,555.62l0.39,0.96l0.27,0.66l-0.35,0.11l-0.27-0.66
			C1196.4,556.08,1196.32,555.7,1196.6,555.62z M1196.11,550.22l0.15,0.36l0.4,0.96c-0.38-0.15-0.59-0.29-0.69-0.53
			C1196.16,550.75,1196.21,550.46,1196.11,550.22z M1191.6,549.77l0.27,0.66c0.1,0.24,0.05,0.32-0.23,0.4l-0.42,0.13
			C1191.15,550.79,1191.28,550.33,1191.6,549.77z M1190.02,548.02l0.42-0.13c0.49-0.15,0.97,0.24,1.31,1.08l-0.42,0.13
			c-0.49,0.15-0.77,0.04-0.76-0.31C1190.56,548.39,1190.39,548.17,1190.02,548.02z M1220.53,537.76l-0.54,0.16
			c0.28,0.33,0.51,0.7,0.7,1.16c-0.1-0.24-0.1-0.44,0.02-0.54c0.02-0.14,0.02-0.35-0.09-0.58
			C1220.59,537.88,1220.56,537.82,1220.53,537.76z M1222.71,539.55l-0.51,0.15l-0.27-0.66l-0.35,0.11
			c-0.11,0.51-0.21,1.01-0.51,1.44c-0.2,0.47,0.06,0.93,0.82,1.44c0.56,0.78,0.85,1.5,0.66,2.16c-0.13,0.65,0.29,1.47,1.22,2.4
			c-0.18,0.32-0.25,0.55-0.14,0.79c0.1,0.24,0.1,0.44-0.08,0.77l0.67,1.62l0.28,0.66c0.14-0.99,0.34-1.66,0.45-1.96l-0.27-0.67
			l-0.67-1.62c-0.2-0.48-0.16-0.76,0.07-0.97c0.16-0.19,0.25-0.35,0.15-0.58c-0.17-0.42-0.47-0.94-0.82-1.44
			c-0.27-0.47-0.26-0.74,0.16-0.92C1223.26,541.31,1222.97,540.39,1222.71,539.55z M1230.29,582.29l0.5-0.9
			c-0.69-0.33-1.18-0.38-1.39-0.32c-0.28,0.08-0.37,0.25-0.3,0.43c0.1,0.24,0.36,0.3,0.71,0.19
			C1230.23,581.56,1230.38,581.72,1230.29,582.29z M1202.16,648.42l-0.1,0.03l-0.07-0.14c-0.15-0.07-0.29-0.11-0.43-0.12
			c0.06-0.07,0.13-0.14,0.2-0.2c-0.06-0.02-0.14-0.01-0.23,0.03c-0.23,0.08-0.39,0.03-0.48-0.17l-0.12-0.24l0.62-0.22
			c0.12,0.26,0.31,0.39,0.54,0.39c0.04-0.02,0.08-0.04,0.13-0.05c0.11-0.04,0.28-0.1,0.52-0.18c0.46-0.16,1.2-0.29,2.22-0.4
			c1.03-0.11,1.78-0.26,2.23-0.41c0.81-0.28,1.48-0.75,2.03-1.41c0.54-0.67,0.93-1.6,1.18-2.8c0.39,0.67,0.58,1,0.58,1
			c0.15,0.75,0.04,1.42-0.33,2.03c-0.37,0.61-0.79,1.28-1.26,1.99c-0.47,0.72-0.92,1.43-1.32,2.13c-0.41,0.69-0.69,1.31-0.83,1.84
			c-0.2,0.22-0.42,0.37-0.65,0.46c-0.11,0.04-0.23,0.08-0.34,0.12c-0.34,0.12-0.71,0-1.09-0.35c-0.38-0.35-0.78-0.76-1.19-1.27
			c-0.41-0.49-0.82-0.99-1.23-1.49C1202.54,648.74,1202.35,648.55,1202.16,648.42z M1200.5,647.42c-0.17-0.34-0.51-0.5-1-0.55
			c-0.49-0.05-0.83-0.21-1-0.55l0.48-0.51c0.41,0.31,0.67,0.44,0.95,0.45c0.27,0.02,0.42,0.19,0.61,0.58L1200.5,647.42z
			 M1216.14,632.8l-0.61,0.22l-0.74-0.01l-0.4-0.83l-0.34,0.12l-0.04-0.89c-0.26-0.53-0.26-0.81-0.09-0.88l0.33-0.12l0.64,1.31
			c0.16,0.34,0.42,0.58,0.66,0.67C1215.86,632.49,1216.07,632.65,1216.14,632.8z M1236.26,624.91v-38.83
			c-0.33-0.17-0.71-0.35-1.16-0.53l-0.25-0.6l-0.77,0.23c-0.65-0.81-1.51-1.57-2.63-2.17c-0.48,0.15-0.89,0.14-1.13-0.06
			c-0.14-0.16-0.4-0.22-0.68-0.13l-0.89-0.07l-0.62-0.55l-0.42,0.13l-0.97-0.45l-0.77,0.23l-0.69-0.53
			c-1.26,0.38-2.21,0.54-2.8,0.45c0.2-0.26,0.51-0.49,0.99-0.64l1.19-0.36c0.66,0.28,1.39,0.32,2.16,0.09
			c0.77-0.24,1.4-0.43,1.89-0.58c1.26-0.38,2.08-0.3,2.49,0.32c0.41,0.62,1.08,1.29,1.92,1.99c1.04,0.43,1.45,0.85,1.31,1.09
			c0.21-0.07,0.74,0.04,1.39,0.32h0.43v-73.65h-76.23v49.74l1.02,0.36l1.61,0.95c0.26,0.53,0.36,0.95,0.33,1.32
			c-0.02,0.37,0.07,0.78,0.33,1.32l1.51-0.55l0.22,0.46c0.11,0.23,0.27,0.35,0.63,0.22c0.35-0.13,0.61-0.04,0.76,0.27l0.18,0.38
			l-0.98,0.35c-0.26-0.53-0.68-0.75-1.21-0.55c-0.45,0.16-0.96,0.16-1.34,0.03l-0.22-0.46c-0.26-0.53-0.74-1.08-1.43-1.64
			c-0.6-0.59-1.11-1.21-1.38-1.75l-0.04-0.07v140.16l48.56-48.56l-0.12,0.04c-0.62,0.22-1.07,0.1-1.33-0.43l0.08-0.66
			c0.17,0.34,0.43,0.48,0.71,0.37c0.33-0.12,0.54,0.03,0.71,0.37l0.08,0.17l0.85-0.85c0.02-0.06,0.05-0.12,0.11-0.16
			c0.18-0.18,0.23-0.48,0.29-0.9l0.62-0.22c0.06,0.02,0.12,0.05,0.18,0.07l7.42-7.42l-0.14-0.29c-0.94,0.11-1.69-0.07-2.45-0.54
			c-0.7-0.49-1.51-0.66-2.37-0.52l-0.88-0.31l-0.96,0.34c-0.39,0.14-0.71,0.03-0.88-0.31l1.86-0.67l0.74,0.02l1.04-0.04
			c0.78,0.52,1.36,0.76,1.75,0.62c0.21-0.53,0.38-0.99,0.44-1.41c0.17-0.06,0.14-0.39-0.12-0.93l0.16-0.34
			c0.06-0.42,0.06-0.7,0.01-0.8c-0.05-0.1-0.03-0.33-0.03-0.74c0,0,0.13-0.27,0.36-0.75c0.13-0.28,0.12-0.56-0.06-0.95l0.62-0.22
			l0.14,0.29c0.07,0.15,0.04,0.5-0.13,0.96c-0.11,0.44-0.1,0.89,0.07,1.22l-0.28,0.1l0.38,0.78c-0.21,0.53-0.15,1.19,0.3,2.11
			l-0.39,0.71c0.47,0.2,0.89,0.56,1.27,1.17L1236.26,624.91z"/>
		<path class="st4" d="M1318.33,552.28l0.79-1.09l0.23,2.32L1318.33,552.28z M1310.3,552.86l1.42-1.97l1.36,1.63l-1.42,1.97
			L1310.3,552.86z M1314.99,523.84c-0.72-0.15-1.08-0.69-1.08-1.62c0-0.77,0.36-1.47,1.08-2.08l0.89,1.62l0.18,0.46
			C1316.06,522.22,1315.7,522.75,1314.99,523.84z M1305.32,526.62c-0.72-0.3-1.07-1-1.07-2.08c0-0.93,0.36-1.55,1.07-1.86l0.89,1.16
			l0.17,0.7C1306.39,524.7,1306.04,525.39,1305.32,526.62z M1299.96,523.38v-1.62h1.43v1.62H1299.96z M1304.79,532.86
			c-0.12,0-0.6-0.38-1.43-1.15c0.24-0.92,0.71-1.39,1.43-1.39c0.71,0,1.2,0.47,1.43,1.39l-0.89,0.92L1304.79,532.86z
			 M1295.47,530.55l1.08-1.62l0.89,1.62l-0.89,1.16L1295.47,530.55z M1285.82,532.63c-0.71-0.62-1.07-1.7-1.07-3.23
			c0-2.01,0.71-3.32,2.14-3.94c0.6,0.78,0.89,1.47,0.89,2.09c0,0.77-0.29,1.69-0.89,2.77
			C1286.3,531.41,1285.94,532.18,1285.82,532.63z M1279.02,521.76c-0.72-1.23-1.07-2.09-1.07-2.54l0.18-0.24l1.97,1.16
			L1279.02,521.76z M1274.91,524.07c-0.12,0-0.66-0.46-1.62-1.39l0.89-0.92c0.72,0.77,1.08,1.39,1.08,1.85v0.23L1274.91,524.07z
			 M1270.26,527.78l1.07-1.16l0.9,1.16l-0.9,1.15L1270.26,527.78z M1248.67,525.81c-0.98-0.63-1.48-1.8-1.48-3.51v-1.9l2.71,3.5
			L1248.67,525.81z M1243.43,610.01l1.12-0.34l0.12,0.3l-1.12,0.34L1243.43,610.01z M1247.57,606.51l-1.26-0.02l-0.39-0.96
			c0.49-0.15,0.98-0.1,1.52,0.08c0.5,0.25,1.07,0.49,1.79,0.74l-0.42,0.13c-0.21,0.06-0.44,0.07-0.61,0.05
			C1248.02,606.45,1247.86,606.43,1247.57,606.51z M1246.69,600.16l-0.82-1.98c0.49-0.15,0.87-0.2,0.99-0.1
			c0.19,0.08,0.53-0.03,1.03-0.17c0.37,0.9,0.5,1.6,0.47,2.09l0.62,0.56l0.91,0.12l-1.54,0.47l-0.15-0.37
			C1248.03,600.36,1247.53,600.1,1246.69,600.16z M1244.24,595.36c0.45,0.34,0.76,0.51,0.83,0.49c0.14-0.04,0.28,0.11,0.48,0.6
			l-0.23,0.4l-0.77,0.24c-0.08-0.18-0.22-0.34-0.41-0.42c-0.19-0.07-0.33-0.23-0.41-0.41
			C1243.57,595.83,1243.75,595.51,1244.24,595.36z M1247.31,594.42c-0.49,0.15-0.62,0.39-0.36,0.66c0.29,0.32,0.27,0.46-0.01,0.54
			l-0.35,0.11l-0.12-0.3c-0.27-0.66-0.21-1.09,0.28-1.24L1247.31,594.42z M1273.74,580.49c-1.04-0.43-1.54-0.68-1.54-0.68
			l-1.31,0.06l-0.62-0.56l-1.54,0.47c-0.77,0.23-1.31,0.26-1.68,0.1l3.07-0.93c0.49-0.15,0.79-0.17,0.84-0.05
			c0.05,0.12,0.29,0.11,0.85-0.06l0.35-0.1c0.18-0.33,0.2-0.67,0.02-1.09c-0.2-0.48-0.32-0.78-0.42-1.02
			c0.13-0.24,0.78-0.38,2.03-0.21l0.97-0.7l-0.27-0.67l0.91,0.13l0.12,0.3c-0.39,0.39-0.75,0.84-1.11,1.49
			c-0.52,0.83-0.31,1.92,0.44,3.18L1273.74,580.49z M1292.24,574.45l-0.39-0.96c0.28-0.09,0.47-0.01,0.54,0.17l0.15,0.37
			L1292.24,574.45z M1263.89,581.59l0.77-0.24l0.42,1.03l-0.77,0.23L1263.89,581.59z M1289.29,572.43c-1.04-0.43-1.8-0.94-2.35-1.51
			l-0.23,0.4l-1.04-0.43c-0.36-0.09-0.62-0.15-0.89-0.07c-0.28,0.09-0.47,0.01-0.57-0.23c1.05-0.32,1.53-0.47,1.53-0.47
			c-0.25-0.6-0.12-1.05,0.37-1.2l0.57,0.23l1.47-0.45c0.53,0.52,1.08,1.09,1.56,1.69c0.55,0.57,0.96,1.19,1.23,1.86l-0.42,0.13
			c-0.21,0.06-0.45,0.06-0.63-0.01C1289.71,572.3,1289.57,572.35,1289.29,572.43z M1281.04,570.15c1.26-0.38,2.2-0.2,2.82,0.56
			l-0.35,0.11C1282.75,571.05,1281.94,570.82,1281.04,570.15z M1271.69,570.35c0.38-0.59,0.72-1.3,1.08-2.15
			c0.35-0.86,0.55-1.52,0.66-2.03c-0.28-0.66-0.31-1.12-0.2-1.43l0.42-0.13l-0.12-0.3c-0.2-0.48-0.14-0.7,0.08-0.77l0.42-0.13
			l1.33,3.25c-0.46,0.41-0.82,0.86-1.11,1.49c-0.32,0.57-0.78,0.98-1.27,1.13c0.17,0.42,0.02,0.8-0.58,1.26
			c-0.53,0.43-0.69,0.82-0.52,1.23l0.15,0.37c-0.38-0.16-0.64-0.42-0.84-0.9C1271.02,570.83,1271.2,570.5,1271.69,570.35z
			 M1265.84,565.51l0.42-0.13c0.21-0.06,0.4,0.01,0.5,0.26C1266.48,565.72,1266.22,565.66,1265.84,565.51z M1274.38,563.32
			l-0.27-0.66c-0.17-0.42-0.27-0.67-0.27-0.67l0.12,0.3l0.15,0.36L1274.38,563.32z M1270.95,558.06c-1.25,0.38-2.14,0.32-2.7-0.26
			l1.12-0.34l0.12,0.3c0.17,0.42,0.97,0.45,2.22,0.06c0.17,0.42,0.63,0.55,1.39,0.32l1.04,0.42c0.28-0.09,0.46-0.21,0.69-0.42
			c0.23-0.2,0.41-0.33,0.69-0.42c0.59,0.09,0.92,0.13,0.92,0.13c-0.21,0.27-0.51,0.49-1.06,0.67
			C1274.14,558.92,1272.66,558.76,1270.95,558.06z M1288.79,519.1l-0.13-0.27c-0.15-0.31-0.16-0.58-0.03-0.83l0.24,0.49
			C1289.01,518.81,1288.99,519.03,1288.79,519.1z M1289.68,516.78l-0.57,0.21l-0.13-0.27l0.57-0.2L1289.68,516.78z M1288.73,516.23
			c-0.15,0.05-0.32-0.04-0.5-0.4c-0.22-0.45-0.09-0.81,0.48-1.02l0.34,0.72C1289.24,515.89,1289.15,516.08,1288.73,516.23z
			 M1286.67,509.23l0.35,0.72l-0.83,0.3c-0.21,0.08-0.38,0.35-0.65,0.81c0.9,0.84,1.45,1.59,1.77,2.26
			c0.24,0.49,0.19,0.77-0.23,0.92c-0.06-0.14-0.21-0.45-0.41-0.86c-0.2-0.4-0.38-0.65-0.68-0.75l-0.1-0.23l-0.31,0.12
			c-0.32-0.67-0.62-1.14-0.98-1.39l-0.39-0.17l-0.35-0.72c0.45,0.05,0.79-0.02,1.06-0.22c0.22-0.18,0.51-0.34,0.92-0.49
			L1286.67,509.23z M1273.23,509.76l-0.11-0.22c-0.15-0.31-0.43-0.37-0.85-0.12c-0.45,0.22-0.75,0.22-0.93-0.14l0.57-0.2
			c0.78-0.28,1.23-0.24,1.38,0.07c0.08,0.18,0.08,0.29-0.03,0.32C1273.17,509.52,1273.16,509.63,1273.23,509.76z M1266.29,510.58
			c0.16,0.31,0.16,0.58-0.06,0.86c-0.08,0.12-0.11,0.23-0.09,0.34l0.02,0.01l-0.01,0.01c0.03,0.13,0.13,0.26,0.32,0.38l-0.86,0.31
			l-0.68,0.88c-0.12-0.18-0.23-0.35-0.33-0.51l-0.42,0.15c-0.19,0.49-0.54,0.78-0.91,0.91l-0.26,0.1c-0.15-0.32-0.09-0.55,0.33-0.7
			c0-0.33,0.26-0.76,0.74-1.29c-0.42-0.73-0.64-1.22-0.64-1.5v-0.64l1.95,1.38c-0.07-0.23-0.1-0.45-0.07-0.65L1266.29,510.58z
			 M1268.08,509.36l0.13-0.36c0.21-0.07,0.71,0.06,1.52,0.35l0.57-0.21c0.36-0.13,0.59-0.16,0.68,0.02l0.11,0.22l-0.57,0.21
			c-0.37,0.13-0.85,0.26-1.41,0.24c-0.56-0.01-1.1,0.13-1.67,0.34l-0.26,0.09l-0.13-0.27c-0.08-0.18,0.02-0.59,0.36-1.28
			L1268.08,509.36z M1291.72,519.05l0.27-0.1c0.01-0.1-0.03-0.23-0.1-0.38c-0.09-0.18-0.2-0.3-0.4-0.43
			c-0.19-0.14-0.26-0.28-0.35-0.45c-0.42,0.15-0.68-0.02-0.92-0.51l-0.22,0.92c0.04,0.09,0.09,0.16,0.15,0.23
			c-1.21,1.27-1.83,2.73-1.83,4.37c0,0.47,0.12,0.84,0.36,1.16l3.02-4.81C1291.71,519.03,1291.71,519.04,1291.72,519.05z
			 M1242.68,588.16l0.04,6.55l0.13,0.33l-0.12-0.3l-0.01-0.03l0.16,25.19l21.54-21.47l-0.05-0.01l-0.12-0.3l-0.77,0.24l-0.15-0.36
			c-0.28-0.12-0.5-0.26-0.54-0.37c-0.05-0.12-0.24-0.2-0.62-0.36l-0.27-0.66l-0.7,0.21l-0.55-1.32l-0.77,0.23l-0.27-0.66l-0.54-0.18
			l-0.15-0.36l-1.37-0.26c-0.95-0.99-2.12-1.72-3.54-2.3c-1.32-0.54-2.53-1.39-3.64-2.54c-0.21,0.06-0.51,0.09-0.84,0.06
			c-0.26-0.06-0.56-0.03-0.77,0.03c-0.35-0.09-0.72-0.59-1.09-1.49c-0.49,0.15-0.79,0.38-0.83,0.66c0.01,0.2-0.3,0.42-0.78,0.58
			l-0.54-0.17l-0.15-0.36l-1.59,0.14l-0.69-0.53L1242.68,588.16z M1242.18,508.25l0.22,34.76h0.85v2.87h-0.84l0.25,39.57
			c0.14-0.02,0.29-0.05,0.45-0.1l0.91,0.13c0.28-0.08,0.52-0.09,0.68-0.07c0.11,0.1,0.35,0.09,0.63,0.01
			c0.21-0.06,0.3-0.23,0.22-0.41c0.49-0.15,0.72-0.36,0.62-0.59c-0.02-0.05-0.03-0.09-0.03-0.14c0.16,0.01,0.32,0.01,0.49,0.03
			l1.39-1.5c0.46,0.69,0.81,1.25,1.05,1.71c0.53,0.06,1.09,0.13,1.7,0.21l0.53,0.7l0.57,0.23c0.38,0.36,0.67,0.68,0.82,1.03
			c0.12,0.3,0.57,0.64,1.24,0.91c-0.18,0.32-0.2,0.67-0.03,1.09c0.2,0.48,0.44,0.88,0.76,1.26c0.32,0.38,0.58,0.84,0.75,1.26
			c1.35,0.6,2.67,1.15,3.95,1.77c1.25,0.56,2.53,1.19,3.93,1.71c0.21-0.06,0.27-0.29,0.08-0.77c0.42-0.33,0.83-0.85,1.14-1.43
			l-0.27-0.66l0.77-0.24l0.72-1.3c0.28-0.09,0.53-0.23,0.7-0.42c0.23-0.21,0.42-0.33,0.69-0.42c-0.17-0.42,0-0.74,0.5-0.89
			c0.28-0.09,0.4,0.01,0.5,0.26l-0.23,0.41l-0.5,0.89l-0.77,0.24c0.17,0.42-0.08,0.77-0.84,1c-0.11,1.06-0.48,1.71-0.92,1.97
			c-0.46,0.21-0.9,0.68-1.21,1.25l0.96,1.19c0.11-0.31,0.3-0.23,0.5,0.26l0.12,0.3c0.1,0.24,0.31,0.48,0.59,0.69l14.08-14.02
			c1.68-1.67,4.38-1.67,6.06,0l13.58,13.58l0.06-0.02c0.28-0.09,0.47-0.01,0.57,0.24l-0.32,0.1l22.91,22.91l0.78-99.38
			c-0.73,0.9-1.26,1.35-1.58,1.35h-0.18c0.12-0.31,0.18-0.85,0.18-1.62c0-0.3-0.06-0.69-0.18-1.16c-0.11-0.47-0.27-0.92-0.45-1.38
			c-0.17-0.47-0.33-0.92-0.45-1.39c-0.12-0.46-0.17-0.85-0.17-1.15c0,0,0-0.08,0-0.23c0-0.16,0.05-0.46,0.17-0.93
			c0.84-0.62,1.49-0.92,1.97-0.92c0.24,0,0.36,0.23,0.36,0.69c0,0.47-0.09,1.19-0.27,2.2c-0.18,1-0.27,1.66-0.27,1.97
			c0,0.97,0.29,1.68,0.87,2.16l0.09-10.97l-15.38-0.15l2.8,2.71l-0.9,1.39c-0.11-0.15-0.27-0.35-0.45-0.58
			c-0.18-0.23-0.39-0.54-0.62-0.92c-0.24-0.39-0.45-0.73-0.63-1.05c-0.17-0.3-0.27-0.62-0.27-0.93v-0.63l-5.73-0.05
			c-0.72,1.23-1.73,2.15-3.03,2.76v-2.79l-12.78-0.12l-1.36,0.49l-0.68-0.02c-0.24-0.22-0.29-0.38-0.15-0.49l-2.62-0.02l0.31,0.25
			l0.31-0.11c0.37-0.13,0.66-0.03,0.81,0.29c0.07,0.13,0.07,0.65,0.02,1.42c-0.3-0.11-0.55-0.38-0.79-0.87
			c-0.81-0.28-1.12-0.54-1.05-0.78c-0.21-0.07-0.42-0.14-0.64-0.19L1242.18,508.25z"/>
		<path class="st4" d="M1368.86,631.39l0.95-1.31l-0.11,2.34L1368.86,631.39z M1353.89,568.13c-0.43,0.31-0.44,0.16-0.01-0.42
			c0.42-0.58,1.16-1.61,2.21-3.07c0.96-1.31,1.93-1.77,2.92-1.4l0.07,2.54l-0.63,0.87c-0.21,0.3-0.73,0.57-1.54,0.82
			C1356.09,567.71,1355.09,567.94,1353.89,568.13z M1339.14,594.27l1.26-1.75l1.53,1.84l-1.27,1.76L1339.14,594.27z M1335.6,559.59
			c-0.14-0.71,0.07-1.41,0.59-2.15c0.43-0.57,1.01-1.1,1.77-1.56c0.76-0.46,1.73-0.78,2.93-0.98l0.06,2.12
			c-0.1,0.42-0.21,0.72-0.31,0.86c-0.22,0.3-0.32,0.43-0.32,0.43C1339.8,559.05,1338.22,559.47,1335.6,559.59z M1332.2,567.82
			l1.28-1.76l1.52,1.84l-1.26,1.76L1332.2,567.82z M1357.21,518.29v-1.61h1.43v1.61H1357.21z M1352.91,521.76v-1.62l0.9,1.62
			H1352.91z M1343.07,517.83v-2.78l1.97,1.62c-0.84,0.77-1.37,1.15-1.62,1.15H1343.07z M1337.35,520.14
			c-1.32-0.61-1.98-1.93-1.98-3.93c0-1.54,0.31-2.62,0.91-3.24c0,0.16,0.11,0.42,0.35,0.81c0.24,0.38,0.47,0.85,0.72,1.39
			c0.23,0.55,0.44,1.08,0.62,1.62c0.18,0.54,0.26,0.96,0.26,1.27C1338.24,518.67,1337.95,519.37,1337.35,520.14z M1333.41,527.78
			l1.07-1.16l0.88,1.16l-0.88,1.15L1333.41,527.78z M1332.88,534.72v-2.08h1.61v2.08H1332.88z M1402.74,634.35v-1.86h1.43v1.86
			H1402.74z M1395.41,637.36l-0.9-1.16l1.97,1.16H1395.41z M1393.26,659.11c-0.24,0-0.83-0.46-1.79-1.39l1.97-2.55l1.07,1.16v0.47
			c0,0.16-0.36,0.84-1.07,2.08L1393.26,659.11z M1396.48,670.68c-0.95,0-1.43-0.54-1.43-1.62c0-0.16,0.12-0.66,0.36-1.51
			c0.24-0.85,0.59-2.04,1.07-3.59l2.86,3.93l0.18,0.47c0,0.3-0.36,1-1.08,2.08c-0.47,0.14-0.83,0.23-1.07,0.23
			C1397.01,670.68,1396.71,670.68,1396.48,670.68z M1386.64,653.79l1.07,1.39l-1.07,1.16V653.79z M1378.58,648.93
			c-0.36,0-0.96-0.46-1.79-1.38l1.07-1.16c0.36,0.62,0.63,1.05,0.81,1.27c0.18,0.24,0.27,0.42,0.27,0.58l-0.18,0.69H1378.58z
			 M1383.78,661.42v-1.15l0.89,1.15H1383.78z M1400.06,683.18c-0.12,0-0.66-0.46-1.62-1.39l1.97-2.54l0.89,1.16v0.45
			c0,0.16-0.09,0.4-0.27,0.69c-0.17,0.31-0.39,0.78-0.62,1.4L1400.06,683.18z M1378.77,661.42l1.07-1.15l0.89,1.15l-0.89,1.39
			L1378.77,661.42z M1388,517.09v-1.84h1.43v1.84H1388z M1399.81,537.23c-0.71-0.15-1.07-0.62-1.07-1.4c0-0.3,0.13-0.65,0.36-1.04
			c0.23-0.39,0.47-0.73,0.71-1.05c0.24-0.3,0.45-0.57,0.63-0.81c0.18-0.22,0.27-0.42,0.27-0.58v4.86H1399.81z M1404.11,547.17
			c-0.23,0-0.72-0.46-1.43-1.38l0.89-1.16c0.72,1.23,1.07,1.85,1.07,1.85l-0.18,0.47L1404.11,547.17z M1373.93,665.36
			c0-2.15-0.3-3.47-0.89-3.93l0.89-1.15c0.71,0.31,1.07,1,1.07,2.08v3.01H1373.93z M1373.74,648.38c-0.56-0.68-0.48-1.54,0.27-2.57
			c1.06-1.46,2.1-1.57,3.11-0.35l0.18,0.64l-2.54,3.5L1373.74,648.38z M1370.52,625.59l1.42-1.97l1.36,1.63l-1.43,1.97
			L1370.52,625.59z M1361.19,594c-0.49-0.4-0.71-0.82-0.36-1.29c0.3-0.37,0.17-0.82-0.33-1.22l3.51-1.32
			c0.51-1.11,0.97-1.54,1.4-1.45l0.49-0.19c0.14,0.29-0.11,0.54-0.68,0.76c-0.15,1.23-0.64,2-1.53,2.34l-0.18-0.35l-1.71,0.65
			c0.49,0.4,0.76,0.72,0.66,0.91c-0.13,0.13-0.02,0.35,0.12,0.62L1361.19,594z M1382.6,585.01l0.49-0.18
			c0.57-0.22,1.15,0.15,1.68,1.21l-1.39,0.52l-0.61-1.19L1382.6,585.01z M1356.63,596.43c-0.15-0.02-0.29-0.06-0.4-0.14
			c-0.19-0.18-0.5-0.23-0.83-0.1l-0.9,0.34c-0.25,0.09-0.48,0.01-0.62-0.27l-0.18-0.35l0.41-0.16c1.23-0.46,2.84-0.73,4.88-0.92
			l0.41-0.16c0.33-0.12,0.56-0.05,0.67,0.17c0.14,0.28,0.01,0.58-0.37,0.81c-0.42,0.32-0.64,0.65-0.82,1.06l-0.09-0.07l0.29,0.35
			l-1.26,1.76l-1.53-1.85L1356.63,596.43z M1384.85,587.34l0.22,0.42c0.25,0.49,0.28,0.74-0.05,0.86l-0.49,0.19l-0.18-0.36
			C1384.1,587.96,1384.28,587.56,1384.85,587.34z M1390.31,587.54l0.39,0.77l-0.49,0.19
			C1390.29,587.89,1390.31,587.54,1390.31,587.54z M1370.66,599.97l-0.9,0.34l-0.23-0.44c-0.16,0.03-0.34,0.06-0.52,0.09l-0.14-1.38
			l-0.08-0.16l0.07,0.03l-0.08-0.82l2.83,0.94l-0.16,0.64c-0.07,0.1-0.21,0.2-0.44,0.29l0.54,0.14c0.53,1.05,0.94,1.65,1.41,1.81
			l-1.31,0.5c-0.47-0.16-0.65-0.51-0.5-0.98C1371.23,600.52,1371.05,600.17,1370.66,599.97z M1391.27,593.63l0.57,1.12
			c0.14,0.28,0.05,0.48-0.2,0.58l-0.39-0.77C1390.97,594,1390.94,593.75,1391.27,593.63z M1373.53,603.5
			c-0.39-0.77-0.4-1.36,0.03-1.85l-0.19,0.57c0.25,0.49,0.71,0.83,1.34,1.09c0.67,0.17,1.05,0.52,1.33,1.09
			c0.11,0.21,0.07,0.72-0.33,1.46l0.31-0.53c-0.28-0.56-0.71-0.82-1.26-0.95C1374.15,604.35,1373.78,603.99,1373.53,603.5z
			 M1375.46,607.29c0.82-0.31,1.52-0.07,1.92,0.7c0.25,0.49,0.17,1.1-0.11,1.88c-0.47-0.16-0.73-0.48-1.02-1.04L1375.46,607.29z
			 M1387.93,616.31l0.32-0.53l0.8,0.62l-0.72,0.69L1387.93,616.31z M1402.48,636.45c0.43,0.09,0.59,0.2,0.59,0.2l0.18,0.35
			l-1.71,0.65l-0.67-0.17c-0.57,0.21-1.1,0.33-1.66,0.37c-0.48,0.02-1.05,0.23-1.62,0.45l-0.23,0.5c-0.14,0.31-0.59,0.58-1.34,0.9
			l0.05,1.95l-0.84-1.01l0.61-0.86c-0.18,0.07-0.37,0.16-0.58,0.23c-0.57,0.21-1.01,0.3-1.48,0.14c0.9-0.34,1.6-0.86,2.16-1.49
			c0.52-0.7,1.27-1.14,2.16-1.48c0.9-0.34,1.67-0.55,2.39-0.48C1401.18,636.77,1401.91,636.67,1402.48,636.45z M1386.25,647.02
			l0.6-0.57l0.75,1.48l-0.9,0.34l-0.56-1.09c-0.11,0.14-0.25,0.27-0.41,0.37l-3.04-3.7l1.97-1.39c1.19,2.62,1.79,3.86,1.79,3.7
			C1386.45,646.49,1386.39,646.78,1386.25,647.02z M1403.58,642.82l0.89-0.34l0.71,0.23l0.18,0.36
			C1405.04,643.19,1404.44,643.17,1403.58,642.82z M1360.37,610.67l1.02,2l1.31-0.06c0.9,0.25,1.45,0.37,1.78,0.25l0.41-0.15
			c0.58,0.37,1.9,0.87,3.95,1.44c2.08,0.64,3.53,1.01,4.39,1.36c0.25,0.49,0.52,0.64,0.78,0.37c0.17-0.23,0.37-0.22,0.51,0.06
			l0.18,0.35c-0.89,0.34-1.23,0.64-1.09,0.92c0.25,0.49,0.72,1.41,1.36,2.67c0.65,1.26,1.21,1.8,1.87,1.56
			c0.24-0.09,0.26-0.44,0.01-0.93l-1.18-2.32c0.58-0.21,0.79-0.55,0.51-1.11l0.23-0.5l1.07,0.01c0.8,0.03,2.01-0.26,3.8-0.93
			c0.32-0.12,0.62-0.24,0.91-0.36c-0.09,0.26-0.15,0.59-0.17,0.98c-0.04,0.65-0.1,1.32-0.2,2.03c-0.09,0.7-0.18,1.34-0.28,1.92
			c-0.09,0.57-0.25,1-0.46,1.29c1,0.38,1.97-0.09,2.92-1.41l0.79-1.09l-0.12-4.68c-0.14-0.03-0.27-0.05-0.41-0.07
			c0.31-0.19,0.57-0.36,0.8-0.55l1.91,0.7l0.49-0.19c0.24-0.09,0.37-0.22,0.3-0.36c-0.07-0.14,0.22-0.34,0.79-0.55
			c0.57-0.21,1.04-0.06,1.29,0.43c0.29,0.56,0.65,0.51,1.11,0.08l0.9-0.34c0.57-0.22,1.07-0.57,1.34-1.01
			c0.3-0.36,0.8-0.71,1.37-0.93c0.33-0.12,0.6,0.02,0.77,0.38c0.19,0.35,0.37,0.53,0.7,0.4l0.23-0.5l0.29-1.53
			c-0.1-0.21,0.06-0.44,0.56-0.63c0.4-0.16,0.58-0.39,0.43-0.67c0.57-0.22,0.94-0.27,1.01-0.13c0.07,0.14,0.35,0.12,1-0.13
			l0.98,0.97c-0.25-0.5-0.35-0.88-0.33-1.22c0.02-0.34-0.16-0.69-0.41-1.19c0.18-0.41,0.85-0.82,2.07-1.28l0.01-0.93
			c1.08-1.33,1.65-2.3,1.73-2.91l-0.89,0.34c-0.57,0.22-0.91,0.51-0.96,0.78c0.06,0.31-0.2,0.75-0.67,1.17
			c-0.43-0.09-1.07-0.01-1.97,0.33l-0.91,1.26c-1.45,0.8-2.73,1.53-3.96,2.16c-1.32,0.66-2.67,1.26-4.14,1.82
			c-1.8,0.68-3.54,1.08-5.22,1.21c-1.65,0.21-3.3,0.41-4.96,0.78c-0.89,0.92-1.65,1.54-2.22,1.76l-0.7-0.24l-0.9,0.34
			c-0.24,0.09-1.12,0.09-2.42-0.17c-1.39-0.23-2.97-0.48-4.67-0.75c-1.7-0.28-3.43-0.63-5.05-1.11c-1.69-0.45-2.71-0.74-3.14-0.83
			C1360.68,610.92,1360.53,610.79,1360.37,610.67z M1349.07,511.35l-0.67,0.2c-0.24,0.08-0.28,0.14-0.2,0.36
			c0.09,0.21-0.16,0.28-0.67,0.2l-0.11-0.26l0.18-0.4l0.36-0.11C1348.39,511.2,1348.74,511.22,1349.07,511.35z M1376.12,512.71
			l0.71,1.73c-0.43,0.13-0.75,0.17-0.86,0.09c-0.17-0.07-0.47,0.02-0.9,0.15c-0.32-0.79-0.44-1.4-0.4-1.82l-0.54-0.48l-0.8-0.11
			l1.34-0.41l0.13,0.32C1374.95,512.54,1375.39,512.76,1376.12,512.71z M1378.25,516.89c-0.39-0.29-0.66-0.44-0.72-0.42
			c-0.12,0.03-0.25-0.1-0.42-0.52l0.2-0.35l0.67-0.21c0.06,0.16,0.19,0.3,0.35,0.37c0.16,0.06,0.29,0.2,0.35,0.36
			C1378.83,516.48,1378.67,516.76,1378.25,516.89z M1375.57,517.7c0.43-0.13,0.54-0.34,0.31-0.57c-0.25-0.28-0.24-0.4,0.01-0.48
			l0.3-0.09l0.11,0.26c0.23,0.57,0.18,0.94-0.24,1.07L1375.57,517.7z M1398.18,512.77c-0.09-0.21-0.21-0.35-0.42-0.52
			c-0.15-0.19-0.32-0.43-0.47-0.8l0.67-0.2c0.06,0.15,0.13,0.31,0.29,0.38c0.17,0.07,0.31,0.26,0.46,0.63
			C1398.56,512.53,1398.42,512.69,1398.18,512.77z M1379.93,518.32l-0.36-0.89l-0.11-0.26l0.58,1.42L1379.93,518.32z
			 M1402.23,513.47c0.15,0.37,0.14,0.67-0.02,0.95c0.08,0.21,0.04,0.28-0.07,0.32c-0.06,0.01-0.08,0.14,0,0.35
			c0.06,0.16-0.01,0.3-0.26,0.37l-0.11-0.27c-0.09-0.21-0.25-0.27-0.61-0.17c-0.31,0.09-0.51,0.1-0.6-0.11l-0.35-0.84l-0.9-0.37
			l0.43-0.78c0.31,0.09,0.66,0.27,1.13,0.42C1401.31,513.57,1401.75,513.62,1402.23,513.47z M1397.36,518.49
			c-0.56,0.17-0.83,0.26-0.83,0.26l0.22,0.52c0.09,0.21,0.25,0.28,0.5,0.2c0,0,0.01,0,0.02-0.01c-0.07-0.16-0.12-0.33-0.12-0.52
			C1397.13,518.94,1397.21,518.79,1397.36,518.49z M1388.3,517.72c0.42-0.13,0.79-0.25,1.2-0.25c0.34,0.01,0.85-0.09,1.52-0.29
			c1.24,0.51,2.19,0.51,3.02,0.02c0.6,0.29,0.93,0.25,0.92,0.07c0.04-0.25,0.3-0.45,0.72-0.58c0.33,0.14,0.49,0.2,0.61,0.17
			c0.12-0.03,0.35,0.01,0.59,0.12l1.25-0.14c0.22-0.46,0.47-0.99,0.76-1.59c0.49,0.15,0.72,0.62,0.72,1.39c0,0-0.01,0.01-0.03,0.05
			c0.21-0.05,0.41-0.13,0.63-0.24c0.52-0.22,0.91-0.11,1.15,0.47c0,0-0.55,0.17-1.64,0.5c-0.48,0.15-0.62,0.31-0.54,0.52h-0.24
			c-0.28,0.55-0.66,1.28-1.12,2.18l0,0l0.05,0.11c-0.42,0.13-0.77,0.11-1.02-0.16c-0.17-0.25-0.5-0.55-0.9-0.85
			c-0.85,0.26-1.88,0.1-3.03-0.55c-1.08-0.62-2.73-0.47-4.85,0.36l-0.67,0.2c-0.48,0.15-0.64,0.43-0.62,0.84
			c0.05,0.45-0.13,0.69-0.62,0.83l-0.41-0.17c-0.17-0.42,0.08-0.96,0.8-1.72C1387.24,518.27,1387.82,517.86,1388.3,517.72z
			 M1381.59,521.35c-0.09-0.21-0.02-0.53,0.24-1.07l0.24,0.58c0.08,0.21,0.06,0.33-0.18,0.4L1381.59,521.35z M1352.57,529.84
			c0.91,0.37,1.34,0.59,1.34,0.59l1.14-0.05l0.54,0.48l1.34-0.41c0.67-0.21,1.14-0.23,1.47-0.09l-2.68,0.81
			c-0.42,0.13-0.69,0.15-0.74,0.05c-0.04-0.1-0.25-0.1-0.73,0.05l-0.31,0.09c-0.16,0.29-0.17,0.58-0.02,0.95
			c0.17,0.42,0.28,0.68,0.37,0.89c-0.12,0.21-0.68,0.33-1.77,0.18l-0.85,0.62l0.24,0.58l-0.8-0.11l-0.11-0.26
			c0.34-0.34,0.66-0.73,0.98-1.3c0.45-0.73,0.27-1.67-0.39-2.76L1352.57,529.84z M1336.46,535.1l0.35,0.84
			c-0.24,0.07-0.41,0-0.47-0.15l-0.13-0.31L1336.46,535.1z M1361.14,528.87l-0.67,0.2l-0.37-0.89l0.67-0.2L1361.14,528.87z
			 M1403.39,516.3l0.13,0.31l-0.67,0.2l-1.03,0.31c0.31-0.57,0.55-0.81,0.8-0.89C1402.86,516.34,1403.15,516.37,1403.39,516.3z
			 M1346.22,538.83c-0.86,0.27-1.55,0.22-2.07-0.14v0.89h-1.43v-0.92c-0.4,0.12-0.6,0.19-0.6,0.19c0.21,0.52,0.1,0.91-0.33,1.04
			l-0.49-0.2l-1.27,0.39c-0.46-0.45-0.94-0.95-1.36-1.47c-0.48-0.5-0.84-1.04-1.08-1.61l0.37-0.11c0.18-0.05,0.38-0.06,0.55,0.01
			c0.16,0.07,0.29,0.03,0.53-0.05c0.9,0.38,1.57,0.82,2.05,1.32l0.2-0.35l0.91,0.37c0.2,0.06,0.38,0.09,0.53,0.09v-0.55h1.43v0.51
			C1344.79,538.07,1345.46,538.28,1346.22,538.83z M1354.35,538.65c-0.33,0.51-0.63,1.13-0.94,1.88c-0.31,0.74-0.48,1.32-0.58,1.77
			c0.24,0.57,0.27,0.97,0.17,1.24l-0.36,0.11l0.11,0.26c0.17,0.42,0.11,0.61-0.07,0.67l-0.36,0.11l-1.16-2.83
			c0.4-0.36,0.72-0.75,0.97-1.29c0.27-0.5,0.68-0.85,1.1-0.99c-0.15-0.37-0.01-0.7,0.51-1.1c0.46-0.38,0.59-0.71,0.45-1.08
			l-0.13-0.31c0.32,0.13,0.55,0.36,0.72,0.78C1354.93,538.24,1354.78,538.53,1354.35,538.65z M1359.44,542.87l-0.37,0.11
			c-0.18,0.05-0.34-0.01-0.43-0.22C1358.88,542.69,1359.11,542.74,1359.44,542.87z M1352.01,544.79l0.23,0.57
			c0.15,0.36,0.24,0.58,0.24,0.58l-0.11-0.26l-0.13-0.31L1352.01,544.79z M1354.99,549.35c1.1-0.33,1.87-0.27,2.36,0.23l-0.98,0.3
			l-0.11-0.26c-0.15-0.37-0.85-0.39-1.94-0.06c-0.15-0.37-0.54-0.48-1.21-0.28l-0.91-0.37c-0.24,0.08-0.4,0.18-0.6,0.36
			c-0.2,0.18-0.36,0.29-0.6,0.36c-0.51-0.08-0.79-0.11-0.79-0.11c0.18-0.23,0.43-0.43,0.92-0.58
			C1352.22,548.61,1353.51,548.75,1354.99,549.35z M1395.55,541.82c-0.42-0.52-0.86-1.27-1.25-2.21c-0.39-0.95-0.38-1.59-0.04-1.93
			c0.17,0.42,0.4,0.82,0.72,1.25c0.25,0.45,0.49,0.85,0.66,1.27C1395.95,540.94,1395.96,541.47,1395.55,541.82z M1399.01,541.07
			l-0.37,0.11c0.17,0.42,0.42,0.52,0.78,0.41c0.3-0.09,0.53-0.04,0.62,0.17l0.1,0.26c-0.42,0.12-0.79,0.06-1.02-0.16
			c-0.25-0.27-0.54-0.3-0.96-0.18c-0.67,0.2-0.97,0.48-0.8,0.89l0.9,0.37c-0.27,0.5-0.36,0.94-0.21,1.3
			c0.33,0.14,0.73,0.78,1.21,1.93c0.39,0.94,0.96,1.83,1.83,2.62c0.82,0.81,1.39,1.7,1.8,2.69c0.07,0.16,0.23,0.23,0.47,0.15
			c-0.04,1.07,0.34,1.84,1.25,2.21c-0.18,0.05-0.11,0.56,0.28,1.51l-0.37,0.11c-0.18,0.06-0.41-0.17-0.65-0.74l-0.31,0.09
			l-0.13-0.31l-0.47-0.15c-0.56-1.36-1.49-2.96-2.96-4.87c-1.41-1.93-2.41-3.68-3.03-5.2c-0.15-0.37-0.28-0.85-0.36-1.37
			c-0.13-0.48-0.24-0.93-0.39-1.29C1396.77,541.63,1397.67,541.48,1399.01,541.07z M1401.62,541.92l-0.13-0.31
			c-0.15-0.37-0.18-0.59,0.07-0.67c0.33,0.14,0.49,0.2,0.49,0.2C1402.2,541.51,1402.05,541.79,1401.62,541.92z M1403.37,541.69
			l0.97-0.3l0.1,0.26c0.09,0.21-0.05,0.37-0.53,0.52L1403.37,541.69z M1399.28,553.53c0,0,0.31-0.1,0.97-0.29
			c0.57,0.06,0.78,0.06,0.78,0.06c-0.34,0.34-0.54,0.52-0.54,0.52C1399.82,554.01,1399.43,553.9,1399.28,553.53z M1395.3,555.68
			l-0.41-0.17c-0.15-0.37-0.05-0.63,0.43-0.78l0.3-0.1l0.11,0.27C1395.91,555.32,1395.73,555.55,1395.3,555.68z M1397.55,556.65
			c-0.18,0.06-0.47,0.02-0.79-0.11c0.6-0.36,0.9-0.8,0.87-1.21c-0.09-0.39,0.37-0.76,1.22-1.03c0.15,0.37,0.06,0.81-0.38,1.41
			C1398.07,556.25,1397.79,556.57,1397.55,556.65z M1398.89,567.03l0.47-0.14c-0.25-0.28-0.44-0.61-0.61-1.01
			c0.08,0.21,0.09,0.38-0.01,0.47c-0.02,0.12-0.01,0.3,0.07,0.51C1398.83,566.92,1398.86,566.98,1398.89,567.03z M1396.99,565.47
			l0.44-0.14l0.24,0.58l0.3-0.1c0.09-0.44,0.18-0.88,0.44-1.26c0.18-0.41-0.05-0.8-0.72-1.25c-0.49-0.68-0.74-1.31-0.58-1.89
			c0.11-0.56-0.25-1.27-1.06-2.09c0.15-0.28,0.21-0.48,0.13-0.69c-0.08-0.21-0.09-0.38,0.06-0.67l-0.58-1.42l-0.24-0.57
			c-0.12,0.86-0.29,1.44-0.39,1.71l0.23,0.58l0.58,1.41c0.17,0.42,0.14,0.67-0.07,0.85c-0.14,0.16-0.22,0.3-0.13,0.51
			c0.15,0.37,0.41,0.82,0.72,1.25c0.23,0.41,0.22,0.65-0.15,0.8C1396.5,563.94,1396.76,564.74,1396.99,565.47z M1390.39,528.27
			l-0.43,0.78c0.6,0.29,1.03,0.33,1.21,0.28c0.24-0.08,0.32-0.22,0.26-0.37c-0.09-0.21-0.32-0.26-0.62-0.17
			C1390.44,528.9,1390.31,528.76,1390.39,528.27z M1329.62,510.61v5.01l0.29-0.09c0.19-0.06,0.29-0.15,0.2-0.36
			c-0.09-0.21-0.01-0.35,0.18-0.4c0.24-0.08,0.4-0.01,0.49,0.2c-0.24,0.07-0.32,0.21-0.38,0.41c-0.03,0.25-0.17,0.41-0.35,0.46
			c-0.19,0.06-0.33,0.03-0.43-0.08v109.15l76.23,76.24v-20.38c-0.56,0.68-0.95,1.02-1.15,1.02c-0.95,0-1.43-0.53-1.43-1.62
			c0-1.54,0.54-2.31,1.61-2.31h0.36c0.25,0.42,0.45,0.79,0.61,1.08v-3.61c-0.46,0.12-0.97,0.15-1.52,0.1
			c-0.79-0.04-1.57,0.17-2.47,0.51l-2.58-0.87l-1.31,0.5l-0.8-0.62l-1.39,0.53l-0.8-0.62l-0.9,0.33l-0.4,0.89l-1.06-2.08l-0.1,0.15
			v-0.35l-1.04-2.05c1.2,0.45,2.38,1.19,3.51,2.17c1.37-0.18,2.83,0.02,4.56,0.54l0.25-0.1c-0.32-0.51-0.48-0.81-0.48-0.92v-0.69
			l1.97,1.39l-0.2,0.26l0.87,0.57l2.61-0.99c0.47,0.42,0.89,0.61,1.27,0.59v-21.35c-0.13-0.03-0.22-0.1-0.28-0.21
			c-0.11-0.21-0.33-0.46-0.81-0.62l-1.37-1.74l-1.07-0.01l-0.4-0.77c-0.79-0.03-1.45-0.37-2.18-1.02c-0.64-0.68-1.28-1.19-1.86-1.56
			c-0.71-0.06-1.29-0.43-1.69-1.21c-0.71-0.06-1.28-0.6-1.78-1.59c-0.17-0.05-0.33-0.1-0.48-0.12l0.57,0.61
			c-0.95,0.92-1.49,1.39-1.61,1.39h-0.36v-0.47c0,0,0.19-0.41,0.54-1.23l-0.45,0.5c-0.47-0.15-0.7-0.23-0.7-0.23
			c-0.14-0.29-0.13-0.45-0.04-0.66c0.09-0.2,0.03-0.51-0.26-1.08l-0.18-0.35l-0.49,0.18c-0.24,0.1-0.52-0.05-0.7-0.41
			c-0.22-0.42-0.16-0.69,0.08-0.79l-1.15-1.32l-0.9,0.34l-0.79-1.55c-0.25-0.49-0.79-0.79-1.51-0.85c-0.68,0-1.38-0.23-1.88-0.63
			c-0.51,0.53-1.42,1.04-2.97,1.62c-2.36,0.9-3.61,1.12-3.83,0.69c-0.16-0.3-0.87-0.45-2.17-0.49l-0.91-1.78l0.72-0.27
			c0.57-0.22,0.79-0.55,0.54-1.04c-0.29-0.56-0.72-0.65-1.29-0.43l-0.21-0.42c0.33-0.12,0.64-0.07,1.11,0.08
			c0.35,0.12,0.98,0.21,1.71,0.28c1.47,0.03,2.15,0.03,2.15,0.03l1.79-0.68l0.8,0.62l1.39-0.53l0.91-1.26
			c0.29,0.56,0.72,0.65,1.29,0.43l0.41-0.15c0.01-1.51,0.08-2.71,0.25-3.69c0.18-0.99-0.1-2.31-0.85-3.78l-0.79-1.55l1.47,0.79
			l-0.01,0.93c0.39,0.77,0.68,1.33,1.06,1.69c0.34,0.29,0.55,0.89,0.69,1.75l-0.68,0.76l1.15,2.25c0.39,0.77,0.95,1.48,1.84,2.07
			c0.8,0.62,1.36,1.16,1.62,1.65c0.28,0.56,0.34,1.04,0.27,1.49c-0.11,0.54-0.06,1.03,0.23,1.59l0.36,0.7l1.11,0.08l0.79,1.55
			l1.07,0.01c0.64,1.27,1.44,2.05,2.26,2.33l0.22,0.42l1.08,0.01c0.64,1.27,1.66,2.3,3.06,2.95c1.43,0.71,2.51,1.48,3.37,2.41
			l0.59,0.2l0.17,0.16v-30c-0.27-0.35-0.58-0.64-0.92-0.85c-0.47-0.16-0.87-0.76-1.41-1.81c-0.76,0.04-1.22-0.29-1.47-0.79
			c-0.25-0.49-0.79-0.79-1.47-0.79l-0.21-0.42c-0.25-0.49-0.95-0.9-2-1.26c-1.09-0.42-1.78-1.01-2.13-1.71
			c-0.14-0.28-0.11-0.8,0.21-1.5c0.25,0.49,0.55,0.88,0.85,1.1c0.27,0.15,0.5,0.4,0.61,0.61c0.47,0.16,0.78,0.38,1.04,0.53
			c0.3,0.22,0.69,0.41,1.05,0.52l1.09,1.01l1.08,0.01l0.22,0.42c0.36,0.7,0.82,1.03,1.47,0.79l0.57,1.12l1.43,0.58v-90.98
			l-0.32-0.41l0.32,0.2v-17.09h-49.25c0.3,0.35,0.67,0.68,1.12,0.99l0.34,0.84l0.8,0.11c0.39,0.29,0.75,0.84,1.05,1.56l0.8,0.11
			l0.11,0.26l0.67-0.2l0.12,0.31c0.25,0.1,0.43,0.22,0.48,0.33c0.04,0.1,0.21,0.17,0.54,0.31l0.24,0.57l0.61-0.18l0.47,1.15
			l0.67-0.2l0.24,0.57l0.47,0.15l0.13,0.32l1.18,0.22c0.84,0.87,1.85,1.5,3.09,2.01c1.15,0.47,2.21,1.21,3.17,2.22
			c0.18-0.06,0.45-0.08,0.73-0.05c0.23,0.05,0.49,0.03,0.67-0.02c0.31,0.08,0.63,0.52,0.95,1.3c0.43-0.13,0.69-0.32,0.72-0.57
			c0-0.18,0.26-0.37,0.68-0.5l0.48,0.15l0.13,0.31l1.39-0.13l0.6,0.47l1.34,0.59c0.24-0.08,0.75,0,1.62,0.27
			c0.86,0.27,1.56,0.47,2.05,0.49c0.41,0.35,1.03,0.69,1.94,1.06l0.21,0.53l0.67-0.21c0.57,0.71,1.32,1.37,2.29,1.9
			c0.43-0.13,0.77-0.12,0.98,0.05c0.13,0.14,0.35,0.19,0.59,0.11l0.78,0.06l0.54,0.48l0.36-0.11l0.84,0.39l0.67-0.21l0.6,0.46
			c1.09-0.33,1.92-0.47,2.44-0.39c-0.18,0.23-0.44,0.43-0.86,0.56l-1.04,0.31c-0.57-0.23-1.21-0.28-1.88-0.07
			c-0.67,0.2-1.22,0.37-1.64,0.5c-1.09,0.34-1.81,0.26-2.17-0.28c-0.36-0.54-0.94-1.12-1.67-1.73c-0.91-0.37-1.26-0.74-1.15-0.95
			c-0.18,0.06-0.63-0.04-1.21-0.28h-1.17l-0.21-0.52l-0.61,0.18l-0.13-0.32c-0.64-0.22-1.64-0.32-3.15-0.34
			c-0.31-0.08-0.65-0.09-1.08,0.04l-0.8-0.11c-0.24,0.07-0.45,0.08-0.59,0.06c-0.11-0.09-0.31-0.09-0.55-0.01
			c-0.19,0.05-0.26,0.2-0.2,0.35c-0.43,0.13-0.62,0.31-0.54,0.52c0.01,0.04,0.02,0.08,0.02,0.12c-1.04-0.06-2.36-0.17-4.03-0.39
			l-0.46-0.61l-0.49-0.2c-0.33-0.31-0.58-0.59-0.71-0.9c-0.11-0.27-0.5-0.55-1.08-0.79c0.16-0.28,0.17-0.58,0.02-0.94
			c-0.17-0.42-0.38-0.77-0.66-1.1c-0.27-0.32-0.51-0.73-0.66-1.1c-1.17-0.52-2.33-1-3.44-1.54c-1.09-0.49-2.2-1.04-3.42-1.49
			c-0.18,0.05-0.24,0.25-0.06,0.67c-0.36,0.28-0.72,0.75-0.99,1.24l0.23,0.58l-0.67,0.2l-0.63,1.14c-0.24,0.07-0.47,0.19-0.6,0.36
			c-0.2,0.18-0.36,0.29-0.61,0.36c0.16,0.37-0.01,0.65-0.43,0.78c-0.24,0.07-0.35-0.01-0.43-0.22l0.2-0.36l0.43-0.78l0.67-0.2
			c-0.15-0.37,0.07-0.67,0.74-0.88c0.1-0.91,0.41-1.48,0.8-1.72c0.4-0.18,0.78-0.59,1.06-1.09l-0.84-1.04
			c-0.09,0.27-0.26,0.2-0.43-0.22l-0.11-0.26c-0.15-0.37-0.56-0.71-1.14-0.95c-0.39-0.29-0.6-0.64-0.65-1.1
			c-0.03-0.4-0.12-0.79-0.27-1.15c-0.17-0.42-0.32-0.61-0.48-0.68c-0.17-0.07-0.23-0.22-0.3-0.38l-0.49-0.2l-0.1-0.26
			c-0.13-0.31-0.32-0.55-0.54-0.71H1329.62z"/>
	</g>
</g>
</svg>
