<svg version="1.2" xmlns="http://www.w3.org/2000/svg" viewBox="0 0 278 228" width="500" height="410">
	<title>DzkVector</title>
	<style>
		.s0 { fill: #c70909 } 
		.s1 { fill: #000000;stroke: #000000;stroke-miterlimit:10 } 
	</style>
	<g id="Layer 1">
		<path id="Shape 10" fill-rule="evenodd" class="s0" d="m202.6 135.8c0 0 20.7-34.6-2.6-72.8-23.3-38.2-69.5-39.6-100-22-30.5 17.6-41.4 76.7-21.4 96.7 1.4 1.4 119.4-0.7 119.4-0.7z"/>
		<path id="Shape 1" fill-rule="evenodd" class="s1" d="m26 38l60 1c0 0 19.7 78.6-30.4 77.8-0.3-0.3-1.6 8.2-1.6 8.2 40.2-2.1 49.4-18.9 51-55 1.3-30.7-5-43-5-43l-5-4h-67z"/>
		<path id="Shape 2" fill-rule="evenodd" class="s1" d="m38 43l14-5-2 86-8 1"/>
		<path id="Shape 3" fill-rule="evenodd" class="s1" d="m130 66h47c0 0 1.1-0.9 1-3-0.1-2.1-2-11-2-11 0 0-0.2-0.7-3-1-2.8-0.3-6 0-6 0h-42c0 0-12.9 4.6-12 6 0.9 1.4 2 3 2 3 0 0 11.9 23.5 13 24 1.1 0.5 6-2 6-2z"/>
		<path id="Shape 4" fill-rule="evenodd" class="s1" d="m125 108l27-34c0 0 2.4-3.4 5-4 2.6-0.6 12-2 12-2 0 0 5.3-1.1 4 0-1.3 1.1-34 36-34 36 0 0-2.6 2.8-4 3-1.4 0.2-11.8 2.1-10 1z"/>
		<path id="Shape 5" fill-rule="evenodd" class="s1" d="m121 109c0 0-4.9 13.9-3 15 1.9 1.1 56 1 56 1 0 0 1.6-2.3 2-4 0.4-1.7 1.3-4.7 0-5-1.3-0.3-55.5-7.9-55-7z"/>
		<path id="Shape 6" fill-rule="evenodd" class="s1" d="m188 26c0 0 16.2-3.4 16-3-0.2 0.4-3 101-3 101 0 0-17.1 3.9-16 3 1.1-0.9 3-101 3-101z"/>
		<path id="Shape 7" fill-rule="evenodd" class="s1" d="m233 67c0 0 3 8.1 3 9 0 0.9 8-5 8-5 0 0 2.4-17.2 1-18-1.4-0.8-9-2.9-11-2-2 0.9-12.7 6-31.6 26.1-1.5 1.6-2.2 14.3-0.4 13.9 1.8-0.4 5-11.6 31-24z"/>
		<path id="Shape 8" fill-rule="evenodd" class="s1" d="m213 86c0 0 0.1-0.2-1.2 0.8-1.2 0.9-12.4 8.4-12.8 9.2-0.5 1 29.5 31 50 31 1.2 0 3-8 3-8 0 0-22.7-4-39-33z"/>
		<path id="Shape 9" fill-rule="evenodd" class="s1" d="m40 132l208-1-2 8c0 0-8.4 3.3-10.1 4-1.8 0.8 16.2-3.2-119.9 26-1.3 0.3 70.4 10.6 72 11.8 1.7 1.2-4.1 5.9-5 7.4-1 1.4-13.7 6.1-15.5 6.6-1.7 0.5-9 3.6-11.3 4.2-1.9 0.4-14.7 3.7-14.7 3.7 0 0-7.8 1.7-9 1.7-0.8-0.1 2-0.9 8.5-3.4 2.7-1 32-14 32-14 0 0-64.7-4-68-6-3.3-2-24.5-17.6-24.5-17.6 0 0-0.2 0 1.5-0.4 1.7-0.4 101-20 101-20l-133 1-5-4c0 0-6.3-6.4-5-8z"/>
	</g>
</svg>