<?xml version="1.0" standalone="no"?>
<!DOCTYPE svg PUBLIC "-//W3C//DTD SVG 20010904//EN"
 "http://www.w3.org/TR/2001/REC-SVG-20010904/DTD/svg10.dtd">
<svg version="1.0" xmlns="http://www.w3.org/2000/svg"
 width="318.000000pt" height="737.000000pt" viewBox="0 0 318.000000 737.000000"
 preserveAspectRatio="xMidYMid meet">

<g transform="translate(0.000000,737.000000) scale(0.100000,-0.100000)"
fill="#000000" stroke="none">
<path d="M643 7306 c-84 -30 -169 -62 -190 -73 -21 -11 -52 -27 -69 -36 -47
-26 -118 -106 -147 -169 -72 -152 -47 -350 68 -534 103 -165 419 -428 764
-636 304 -183 453 -287 515 -359 19 -23 47 -72 62 -109 23 -60 25 -72 15 -123
-13 -72 -40 -123 -88 -168 -46 -44 -132 -100 -205 -132 -51 -24 -218 -86 -242
-92 -6 -1 -18 -5 -26 -8 -8 -4 -91 -33 -185 -66 -296 -104 -389 -148 -452
-213 -109 -112 -144 -322 -78 -461 61 -130 192 -212 681 -426 159 -70 304
-159 351 -215 131 -159 128 -347 -6 -469 -60 -54 -163 -103 -376 -175 -49 -17
-144 -52 -210 -77 -66 -26 -147 -57 -180 -69 -309 -117 -446 -189 -554 -294
-80 -78 -103 -148 -81 -242 14 -60 58 -111 143 -164 87 -56 135 -73 290 -105
78 -17 176 -39 217 -51 41 -11 127 -31 190 -45 360 -80 593 -164 750 -270 128
-87 232 -212 270 -325 52 -153 4 -294 -128 -378 -110 -71 -358 -121 -777 -157
-87 -8 -357 -34 -407 -40 -57 -7 -98 -28 -155 -81 -77 -73 -88 -100 -87 -219
0 -104 17 -188 54 -270 l20 -45 573 0 572 0 18 73 c32 132 78 209 207 340 180
186 316 293 640 505 231 152 311 211 393 291 88 84 119 144 125 236 6 98 -20
156 -104 233 -99 92 -226 146 -559 242 -297 85 -502 163 -570 215 -38 28 -98
140 -115 214 -32 138 13 288 113 376 54 47 300 190 540 314 222 114 352 213
397 301 72 141 64 287 -21 384 -69 78 -166 124 -382 182 -268 70 -811 250
-901 297 -160 84 -221 198 -185 343 10 39 24 56 88 111 42 36 92 73 111 83 99
51 337 110 528 131 227 25 696 123 877 184 74 25 238 111 305 161 34 25 76 68
97 100 34 51 38 65 42 131 5 111 -36 242 -110 354 -87 129 -197 191 -425 237
-168 35 -258 42 -518 43 -377 0 -498 10 -571 43 -33 15 -81 48 -107 73 -105
103 -131 244 -74 410 77 228 267 387 581 486 142 45 225 59 725 122 107 14
209 28 225 31 38 8 109 44 154 78 l35 26 -1150 -1 -1149 0 -152 -53z"/>
</g>
</svg>
