<?xml version="1.0" encoding="utf-8"?>
<!-- Generator: Adobe Illustrator 23.1.1, SVG Export Plug-In . SVG Version: 6.00 Build 0)  -->
<svg version="1.1" id="Camada_1" xmlns="http://www.w3.org/2000/svg" xmlns:xlink="http://www.w3.org/1999/xlink" x="0px" y="0px"
	 viewBox="0 0 2653.33 1866.67" style="enable-background:new 0 0 2653.33 1866.67;" xml:space="preserve">
<style type="text/css">
	.st0{fill-rule:evenodd;clip-rule:evenodd;fill:#3F4040;}
</style>
<g>
	<path class="st0" d="M2256.66,510.93c142.32,0,257.67,115.37,257.67,257.67s-115.36,257.66-257.67,257.66
		c-142.3,0-257.66-115.36-257.66-257.66S2114.36,510.93,2256.66,510.93 M2239.23,549.87c119.06,0,215.56,96.52,215.56,215.58
		c0,119.04-96.5,215.56-215.56,215.56c-119.06,0-215.58-96.52-215.58-215.56C2023.65,646.39,2120.17,549.87,2239.23,549.87
		 M1930.45,420.23l-126.77,129.08h-66.6l56.11-106.18c2.84-4.08,7.63-9.06,14.55-14.57c6.92-5.51,16.7-8.33,29.12-8.33H1930.45z
		 M1709.91,599.74h75.1c19.37,0,36.05,6.92,50.07,20.76c13.86,13.86,20.78,30.55,20.78,49.9v482.8h-145.95V599.74z M1574.43,1130.47
		c-29.14,15.27-60.02,24.69-92.7,28.22c-32.66,3.38-61.43,5.17-86.47,5.17c-50.07,0-93.75-13.5-131.23-40.69
		c-37.46-26.96-56.28-71.71-56.28-134.22c0-58.44,17.04-99.99,51.14-125.02c33.92-25.03,77.41-41.7,130.15-50.07
		c6.92,0,15.27-0.88,25.05-3.01c9.74-2.12,20.76-3.91,33.36-5.32c61.09-8.18,91.63-26.29,91.63-53.98
		c0-20.95-10.83-34.45-32.32-40.67c-21.47-6.2-41.18-9.4-59.3-9.4c-19.35,0-36.74,2.84-52.01,8.52
		c-15.29,5.68-26.29,16.34-33.21,31.96h-139.39c5.49-43.15,24.86-78.67,58.23-106.54c37.47-31.96,90.91-47.95,160.16-47.95
		c77.79,0,136,13.14,174.9,39.6c40.29,27.7,60.38,66.58,60.38,116.48v189.27c0,55.58-10.12,98.9-30.2,130.15
		C1626.1,1094.06,1602.13,1116.63,1574.43,1130.47 M1541.21,875.12c-19.54,9.78-46.5,18.65-81.32,27
		c-31.95,6.92-47.95,10.47-47.95,10.47c-25.03,6.92-43.11,15.98-54.32,27c-9.78,15.25-14.55,30.54-14.55,45.78
		c0,20.8,6.21,37.49,18.82,49.92c12.43,11.17,30.54,16.68,54.15,16.68c38.88,0,69.61-11.19,91.8-33.38
		c22.21-22.21,33.37-52.57,33.37-91.44V875.12z M829.37,1269.68v-54c0-25.03,11.71-40.99,35.33-47.93c16.7-6.94,35.35-6.94,56.11,0
		c20.97,6.94,41.39,14.2,61.45,21.85c20.04,7.63,39.58,11.71,58.25,12.43c18.82,0.7,35.67-7.3,50.96-23.8
		c0,24.86-1.07,45.63-3.03,62.33c-2.14,16.68-14.2,27.17-36.4,31.25c-19.52,4.08-39.6,2.12-60.38-6.21
		c-20.78-8.37-41.37-16-61.45-22.92c-20.04-6.92-38.86-10.12-56.09-9.4C856.71,1233.98,841.8,1246.07,829.37,1269.68
		 M1093.59,982.73h104.06c-15.27,58.23-44.39,102.65-87.36,133.18c-42.98,31.95-97.12,47.95-162.29,47.95
		c-79.2,0-140.83-25.76-185.21-77.07c-44.39-49.88-66.6-121.28-66.6-214.32c0-88.79,21.49-158.04,64.48-207.92
		c44.37-51.33,106.16-77.07,185.19-77.07c83.28,0,147.73,25.03,193.54,74.95c24.88,30.54,42.98,65.87,53.96,106.16h-145.59
		c-6.92-14.03-13.84-24.5-20.76-31.42c-18.13-19.54-43.68-29.29-77.07-29.29c-30.37,0-55.39,9.76-74.74,29.11
		c-25.05,27.88-37.49,73.69-37.49,137.62s12.45,109.04,37.49,135.47c17.92,22.21,44.92,33.38,81.13,33.38
		c23.45,0,43.68-4.95,60.19-14.72c4.27-1.24,7.99-3.72,11.55-7.28c3.36-3.37,7.28-7.28,11.38-11.54c2.82-4.1,8.33-9.76,16.7-16.7
		C1064.46,986.29,1076.89,982.73,1093.59,982.73 M403.82,580.92l-99.97,303.8h199.76L403.82,580.92z M370.45,437.26H487.1
		l259.95,715.94h-155.9l-47.95-148.09H264.44l-45.8,148.09H62.55l237.22-667.99C312.19,453.24,335.81,437.26,370.45,437.26
		 M1339.79,1277.04c-10.55-8.99-21.74-15.74-33.45-20.23c-11.79-4.49-24.14-6.73-37.08-6.73c-25.06,0-45.45,8.01-61.19,24.12
		c-15.74,16.11-23.62,36.95-23.62,62.58c0,24.71,7.65,45.16,22.98,61.28c15.31,16.11,34.62,24.14,57.91,24.14
		c13.58,0,26.49-2.41,38.79-7.24c12.24-4.81,24.03-12.03,35.33-21.77v42.17c-10,7.24-20.93,12.64-32.75,16.15
		c-11.83,3.59-24.63,5.38-38.38,5.38c-17.56,0-33.77-2.91-48.64-8.63c-14.95-5.77-28-14.23-39.3-25.42
		c-11.19-10.98-19.76-23.92-25.8-38.79c-6-14.89-9.01-30.78-9.01-47.61c0-16.85,3.01-32.64,9.01-47.4
		c6.04-14.84,14.7-27.79,26.12-38.96c11.39-11.3,24.46-19.87,39.19-25.65c14.72-5.83,30.65-8.74,47.8-8.74
		c13.46,0,26.32,2.01,38.53,5.9c12.26,3.97,24.09,9.89,35.59,17.88L1339.79,1277.04z M1352.9,1376.58c0-10.85,2.09-21.13,6.2-30.78
		c4.12-9.66,10.06-18.28,17.77-25.78c7.65-7.45,16.42-13.12,26.4-17.13c9.95-3.97,20.33-5.94,31.19-5.94
		c11.17,0,21.72,1.97,31.63,5.94c9.85,4,18.73,9.85,26.59,17.56c7.82,7.65,13.76,16.26,17.9,25.89c4.04,9.57,6.09,19.71,6.09,30.24
		c0,10.98-2.05,21.32-6.04,30.89c-4.02,9.63-9.93,18.13-17.67,25.59c-8.14,7.8-17.19,13.74-27.13,17.75
		c-9.91,4.02-20.38,6.07-31.36,6.07c-10.77,0-21.13-2.05-31.06-6.07c-9.95-4.01-18.78-9.83-26.53-17.43
		c-7.82-7.78-13.76-16.43-17.88-26.06C1354.91,1397.73,1352.9,1387.45,1352.9,1376.58 M1480.7,1376.92
		c0-13.82-4.46-25.53-13.31-35.12c-8.89-9.57-19.76-14.33-32.62-14.33c-12.71,0-23.6,4.76-32.53,14.33
		c-8.95,9.59-13.37,21.3-13.37,35.12c0,13.8,4.42,25.52,13.37,35.11c8.93,9.59,19.82,14.35,32.53,14.35
		c12.75,0,23.62-4.76,32.57-14.35C1476.24,1402.43,1480.7,1390.72,1480.7,1376.92 M1533.2,1450.76v-148.67h32v24.41
		c6.79-10.29,14.78-17.75,23.97-22.47c9.23-4.72,20.4-7.07,33.62-7.07c11.07,0,20.49,1.77,28.32,5.25
		c7.75,3.54,13.88,8.72,18.26,15.63c2.61,4.06,4.47,8.84,5.68,14.29c1.11,5.42,1.71,14.93,1.71,28.52v90.12h-34.39v-76.3
		c0-19.54-2.35-32.55-7.11-38.96c-4.76-6.43-13.22-9.65-25.36-9.65c-7.92,0-15.04,1.45-21.25,4.38c-6.2,2.93-11.13,7.07-14.67,12.37
		c-2.52,3.59-4.29,8.14-5.25,13.76c-1.02,5.57-1.5,14.44-1.5,26.7v67.69H1533.2z M1813.7,1344.48c-5.25-5.73-11.3-10.12-18.26-13.11
		c-6.94-3.06-14.46-4.55-22.53-4.55c-13.88,0-24.99,4.49-33.41,13.46c-8.35,9.01-12.52,20.89-12.52,35.76
		c0,15.47,4.23,27.6,12.64,36.44c8.42,8.84,20.03,13.22,34.9,13.22c8.26,0,15.64-1.54,22.11-4.59c6.47-3.1,12.15-7.77,17.07-14.03
		v39.19c-6.26,3.54-13.01,6.15-20.19,7.92c-7.09,1.77-14.76,2.69-22.77,2.69c-23.35,0-42.34-7.46-57.03-22.28
		c-14.7-14.82-22.06-34.09-22.06-57.69c0-23.94,7.61-43.25,22.81-57.91c15.27-14.72,35.12-22.06,59.74-22.06
		c7.71,0,14.82,0.75,21.3,2.29c6.49,1.5,12.58,3.87,18.2,7.01V1344.48z M1936.93,1358.6c-1.32-10.64-5.4-18.78-12.18-24.35
		c-6.79-5.62-16.09-8.4-27.88-8.4c-11.19,0-20.19,2.73-26.98,8.12c-6.73,5.47-11.51,13.65-14.23,24.63H1936.93z M1972.26,1381.41
		h-118.82c0.87,13.91,4.98,24.76,12.43,32.59c7.39,7.82,17.28,11.71,29.63,11.71c10.98,0,20.14-2.29,27.41-6.9
		c7.33-4.59,13.71-12.02,19.16-22.3l28.58,15.98c-8.35,14.99-18.69,26.08-31.04,33.41c-12.3,7.31-26.81,10.98-43.42,10.98
		c-23.86,0-42.81-7.3-56.93-21.81c-14.08-14.53-21.15-33.92-21.15-58.16c0-23.35,7.3-42.44,21.91-57.5
		c14.55-14.99,33.3-22.47,56.18-22.47c23.94,0,42.61,6.84,56,20.53c13.39,13.67,20.06,32.89,20.06,57.5V1381.41z M1988.26,1520.78
		v-218.7h34.03v24.24c3.97-9.36,10.34-16.58,19.07-21.72c8.72-5.1,19.16-7.65,31.31-7.65c19.74,0,35.8,7.28,48.12,21.91
		c12.26,14.53,18.41,33.71,18.41,57.41c0,25.01-6.05,44.69-18.15,59.04c-12.03,14.4-28.64,21.59-49.6,21.59
		c-10.51,0-19.76-2.11-27.9-6.26c-8.07-4.19-15.19-10.57-21.25-19.07v89.22H1988.26z M2021.19,1375.96c0,15.4,3.85,27.7,11.55,36.93
		c7.65,9.19,17.77,13.8,30.35,13.8c12.86,0,22.81-4.27,29.88-12.9c7.05-8.57,10.59-20.78,10.59-36.57c0-15.68-3.7-27.98-11.07-36.82
		c-7.33-8.82-17.45-13.27-30.33-13.27c-12.86,0-22.86,4.29-30.1,12.92C2024.82,1348.6,2021.19,1360.58,2021.19,1375.96
		 M2163.81,1450.76v-118.82h-26.02v-29.86h26.02v-56.2h34.03v56.2h26.02v29.86h-26.02v118.82H2163.81z M2572.25,534.89
		c-6.62-6.62-15.79-10.72-25.91-10.72c-10.14,0-19.31,4.1-25.95,10.72c-6.64,6.66-10.76,15.81-10.76,25.95
		c0,10.13,4.12,19.31,10.76,25.95c6.64,6.64,15.81,10.74,25.95,10.74c10.12,0,19.29-4.1,25.91-10.74
		c6.66-6.64,10.75-15.81,10.75-25.95C2583,550.7,2578.9,541.54,2572.25,534.89 M2546.34,516.38c12.26,0,23.39,4.98,31.42,13.01
		c8.05,8.05,13.03,19.16,13.03,31.44c0,12.3-4.98,23.39-13.03,31.44c-8.03,8.07-19.16,13.05-31.42,13.05
		c-12.3,0-23.43-4.98-31.46-13.05c-8.05-8.05-13.03-19.14-13.03-31.44c0-12.28,4.98-23.39,13.03-31.44
		C2522.91,521.37,2534.04,516.38,2546.34,516.38 M2526.65,583.81v-49.79h21.17c5.3,0,9.18,0.43,11.6,1.34
		c2.41,0.88,4.32,2.48,5.77,4.78c1.47,2.28,2.2,4.89,2.2,7.84c0,3.72-1.13,6.83-3.31,9.25c-2.18,2.44-5.49,3.97-9.87,4.61
		c2.2,1.26,3.99,2.67,5.42,4.19c1.41,1.5,3.29,4.19,5.72,8.07l6.07,9.72h-12.02l-7.28-10.83c-2.59-3.89-4.34-6.32-5.3-7.33
		c-0.96-1.02-1.98-1.71-3.03-2.07c-1.05-0.38-2.75-0.56-5.06-0.56h-2.03v20.8H2526.65z M2536.71,555.08h7.45
		c4.79,0,7.82-0.21,9.03-0.64c1.19-0.39,2.14-1.09,2.82-2.09c0.68-1.02,1.02-2.24,1.02-3.72c0-1.69-0.45-3.05-1.34-4.08
		c-0.88-1.02-2.16-1.69-3.8-1.94c-0.81-0.11-3.23-0.17-7.33-0.17h-7.84V555.08z M2143.3,615.89c27.81,0,50.39,22.56,50.39,50.39
		c0,27.83-22.58,50.39-50.39,50.39c-27.83,0-50.39-22.56-50.39-50.39C2092.9,638.45,2115.47,615.89,2143.3,615.89"/>
</g>
</svg>
