<svg id="Camada_1" data-name="Camada 1" xmlns="http://www.w3.org/2000/svg" viewBox="0 0 2029.29 952.32"><defs><style>.cls-1{fill:#3f4040;fill-rule:evenodd;}</style></defs><title>Camaradoslobos</title><path class="cls-1" d="M719.83,1205.1c28.76,34.86,172,98.37,232.38,116.21l92.61,23.51c-42,23.79-147.25,18.38-199.59,8.38a619.63,619.63,0,0,1-86.28-24c-29.34-10.27-54.65-26.49-78.23-35.68,9.78,54.33,69,111.89,114.46,139.46,148.41,89.46,358.93,53,499.85-33,18.41-11.35,66.15-41.08,75.35-54.59-44.29,5.67-62.7,7-102.38-8.92C1185.17,1303.2,1125.35,1230,1063.23,1181c-76.51-59.72-178.89-77-273.8-28.91-31.06,15.67-50,33.78-69.6,53" transform="translate(-312.02 -532.41)"/><path class="cls-1" d="M312,715.65v61.62c16.11,34.05-4.6,121.62,145.52,302.43,28.19,34,109.29,113.24,145.53,126.48-4.6,11.35-20.13,19.19-29.91,26.48-20.13,14.33-92,59.19-97.78,65.68,20.13-7.3,104.68-57,128.84-72.7,13.8-8.65,12.65-8.65,26.46.27,48.31,30.54,111,59.73,165.65,79.19,23,8.37,105.27,33.24,128.27,32.16-50.61-21.08-78.22-21.89-148.4-57-34.51-17-107-54.32-132.87-77.83,8.06-7.84,31.06-21.36,42.57-28.92,94.33-64.87,208.22-161.62,251.93-266.48,72.48-172.7-87.43-318.11-272.64-200.54l-2.88-6c-9.2-27.56-12.65-73-47.16-110.81-13.81-14.86-25.89-27.29-45.44-38.37-30.49-17-52.34-13.52-65-18.92H472.5c-13.23,6.49-32.79,2.7-64.42,21.35-47.17,27.57-74.78,74.86-88.58,126.48-2.3,10.54-3.45,27-7.48,35.41M629,1191.86c-11.5-5.41-35.66-25.14-44.29-33C492.06,1074,407.5,971.32,378.17,842.13,325.82,611.6,486.3,567.81,547.28,620.79c51.19,44.05,51.19,115.4,70.17,156.48,15.53,32.43,27,24.59,42,12.16,25.31-21.08,52.92-44,95.48-54.59,95.48-23.52,168,34.32,151.28,133.78-6.91,41.08-27,76.75-47.17,104.32l-50,63.24C782.53,1064.83,663.46,1174,629,1191.86Z" transform="translate(-312.02 -532.41)"/><path class="cls-1" d="M1537.76,799.7c1.15,11.08,4.6,5.95,17.26,9.46,4,53.51,2.3,74.86.57,127.57-14.38,5.94-16.68-1.9-17.83,10.26,6.33,3.79,40.84,1.9,51.77,2.17-.58-13.52,2.87-6.22-10.35-10.54l-6.33-3c-6.33-14-2.3-82.43-2.88-103.51l46,90c4,8.92,7.48,24.59,16.68,29.19,7.48-3.24,28.18-52.43,31.64-60.54,9.77-19.73,18.4-43.51,30.48-60.81,8,161.62-16.68,89.19-18.41,117,5.76,4.06,56.95,1.9,69,2.17,0-13,3.45-6.22-11.51-11.08l-4.6-2.17c-5.17-12.16-4.6-112.16-.57-125.67,13.23-7.57,16.68,3.51,16.68-13l-49.47.27c-6.9,9.73-19.56,40.54-25.88,53.24-7.48,16.22-20.71,39.19-25.31,54.05l-52.92-107.29c-10.35.27-48.32-1.62-54.07,2.16" transform="translate(-312.02 -532.41)"/><path class="cls-1" d="M1306,803.75h11.5l6.9-49.45c-40.26-11.9-80.52-20-124.24-6.49-34.51,10.54-63.27,37.84-70.75,77-16.68,93,66.15,145.41,156.46,124.06,7.47-1.9,19.55-5.95,26.45-9.73,5.76-3.79,4.61-2.16,8.63-10,1.73-3.79,4-8.11,0-10-3.45-1.89-19,5.94-25.31,7.84-124.24,37.56-159.33-122.7-83.4-160.54,24.73-12.43,68.45-11.08,86.28,6.75,8.63,7.84,5.18,17,7.48,30.54" transform="translate(-312.02 -532.41)"/><polygon class="cls-1" points="2029.29 175.94 2029.29 166.21 811.6 165.67 811.6 175.67 2029.29 175.94"/><path class="cls-1" d="M1467.59,998.08c10.35,1.62,15.53.81,23,4.86,8.62,18.38,4,144.86,1.72,173.51-7.48,3.51-13.8,3.78-14.38,15.67l149.55-.26,5.18-53.52h-12.08c-2.3,6-2.88,10.54-4.6,16.49l-2.88,10.81c-6.9,12.7-64.42,10-74.2,5.95-4.6-17.3-3.45-157.84,2.88-167.84,4.6-5.13,15.53-2.7,23-7v-9.19l-96.64-.81Z" transform="translate(-312.02 -532.41)"/><path class="cls-1" d="M1954.2,799.7c1.73,13.24,4,3,15.53,11.35,3.45,14.06,5.18,113.24.58,123.51-2.88,4.33-5.18,2.7-9.78,5.14-8,3.51-5.18-4.87-6.33,7.29,6.91,4.33,64.43,3.25,69,0-.58-10.54-4.6-6.21-16.68-9.45-4.61-64.87-2.88-58.11-1.73-127,24.73-1.62,43.72,1.35,44.29,25.41.58,15.13-8.63,26.75-21.28,30.54l-15.53,3.78c-1.15,4.59,31.06,49.73,37.39,60,15.53,23.24,4,19.19,53.49,18.38,1.15-14.06-4-3.25-16.11-19.19l-38-59.46c15-11.89,31.06-14.05,31.06-40.81.58-39.73-45.44-31.62-81.1-31.35-9.21.27-38-2.43-44.87,1.89" transform="translate(-312.02 -532.41)"/><path class="cls-1" d="M1131.1,1191.58h70.75c47.16,0,82.83-28.1,89.15-70,12.08-76.49-44.86-81.89-95.48-81.89l-70.75.27c0,15.94-1.15,5.94,12.08,10.81,7.48,3,6.33,5.13,6.33,15.94.57,14.06,2.3,104.32-1.73,111.62-5.18,9.19-8,0-10.35,13.24m44.86-14.86c-5.17-31.62-.57-88.65-.57-123,52.92-7.3,85.13,7.57,84,60.81C1258.22,1161.86,1227.73,1189.42,1176,1176.72Z" transform="translate(-312.02 -532.41)"/><path class="cls-1" d="M1878.85,1091.86l-1.15,81.62c-2.87,16.48-7.48,1.89-9.78,18.1,43.14-.27,103,7.84,116.77-35.13,10.93-34-12.66-45.94-41.42-49.73,17.84-8.11,37.39-12.16,38.54-35.4,1.73-41.08-59.82-30.54-97.78-31.08l-25.31-.54c.58,14-2.3,7,8.63,10,9.2,2.43,11.5-7.3,11.5,42.16m30.49,9.19.57-50c23-.81,39.69-.27,39.12,24.86C1948.45,1097.8,1932.35,1104.29,1909.34,1101.05Zm1.72,78.64-1.15-65.67c26.46,0,44.29,3.24,44.29,32.16C1954.2,1173.48,1938.67,1182.94,1911.06,1179.69Z" transform="translate(-312.02 -532.41)"/><path class="cls-1" d="M1730.45,1039.16c-103,16.75-84.55,174.86,36.24,153,43.14-7.83,71.9-43.51,64.42-95.4-6.33-45.94-47.74-66.21-100.66-57.56m10.36,10.81c38-5.14,55.21,20.81,58.09,56.48,3.45,37.57-7.48,70.27-40.26,74.86-38.54,5.41-57-22.16-60.4-55.4C1694.22,1085.64,1704.57,1054.83,1740.81,1050Z" transform="translate(-312.02 -532.41)"/><path class="cls-1" d="M2087.07,1038.61c-46.59,6.49-75.35,39.73-67.29,93.79,12.65,91.89,178.88,82.7,165.65-32.16-5.17-47.57-46-69.19-98.36-61.63m-35.08,87.3c-4-37.84,6.32-71.35,40.83-75.94,39.69-5.41,56.95,20,59.83,55.67,3.45,38.38-6.91,71.35-40.84,75.67C2072.69,1186.45,2056,1160,2052,1125.91Z" transform="translate(-312.02 -532.41)"/><path class="cls-1" d="M1354.27,948.62h50.62c0-15.68-5.18-5.68-17.25-13,.57-12.16,6.32-20.81,9.2-31.62l57.52-.54c3.45,11.35,10.35,21.62,10.93,34.6-15.53,1.89-16.11-.27-16.11,11.08l68.45-.27c-.57-25.95-5.18,11.35-24.16-33-9.2-22.43-44.29-111.07-51.19-119.45-19-.54-13.23-4.6-30.49,38.38-4.6,11.35-38.53,95.4-43.14,100-10.92,10.54-13.8-3.78-14.38,13.79M1425,836.19l23.59,53.51-45.44.81Z" transform="translate(-312.02 -532.41)"/><path class="cls-1" d="M2124.46,948.62h50.62c-.58-16-5.18-5.41-17.26-13,.58-11.89,6.33-21.08,9.21-31.62l57.52-.54c3.45,11.08,10.35,21.89,10.35,34.6-14.38,1.62-15.53-2.71-16.11,11.08l68.45-.27c-.57-25.68-4.6,11.08-23.58-33l-46-110.26c-1.15-2.44-2.87-13-16.68-9.46-6.9,3.78-2.3-1.08-6.9,7.84-.58,1.08-2.88,7.56-4,10-2.87,7.3-5.17,13-8.62,20.82-5.18,13.24-10.36,25.67-16.11,40-2.88,7.3-22.43,55.95-26.46,60-10.93,10.54-14.38-3.78-14.38,13.79m71.9-112.43,21.86,54.32-45.44-.54Z" transform="translate(-312.02 -532.41)"/><path class="cls-1" d="M1320.34,1042.13c1.15,10.81,4,5.67,16.68,10,5.75,20,2.3,103,.57,127.83-5.17,3.25-9.2,3-10.35,11.08l109.29-.27,3.45-37.29c-13.23.54-7.48.54-11.51,14.86l-4,8.38-52.92,1.62-1.73-58.92c69.6-5.94,29.34,12.71,49.47,18.38,7.48-5.4,2.88-3.51,2.88-25.67,0-25.68,4.6-20.54-4.6-23.25-6.91,5.14-3.45,8.11-6.33,16.76H1369.8l1.73-52.7c18.41-.81,36.24-.81,53.49,2.16a57.9,57.9,0,0,1,.58,9.73c2.3,12.43-1.15,6,5.18,8.38,6.9-3,4.6-4.87,5.17-14.87.58-5.4,1.73-11.89,1.15-18.1-18.4-.82-110.44-2.71-116.76,1.89" transform="translate(-312.02 -532.41)"/><path class="cls-1" d="M1770.72,947c5.17,3,44.86,3,50,0-1.73-17.83-1.73-2.43-16.68-11.35.57-12.43,6.32-21.62,9.2-31.89l57.52-.27c3.45,11.62,9.78,21.62,10.93,34.33-15,2.16-16.11-2.71-16.68,11.35l68.45-.27c0-17.84-2.3-4.87-13.23-13.25-9.21-7.29-50-123.24-62.12-139.45h-13.81c-11.5,23-50.62,126.21-58.09,136.48-10.36,13.78-13.81-2.43-15.53,14.32M1842,835.92l22.43,54.59L1819,890Z" transform="translate(-312.02 -532.41)"/><path class="cls-1" d="M2225.7,1145.64c-9.21,4-2.88,10.81-8.06,36.76,23,12.43,59.82,16.75,85.71,2.7,11.5-6.22,19.55-13.24,24.73-27.3,5.18-15.13,2.3-34.59-6.33-44-19-20-67.87-7.3-74.77-32.16-6.9-25.68,22.43-44.06,61-22.71,1.15,8.65-1.15,18.38,6.33,20.54,6.9,0,6.9-23.51,6.9-33-24.16-15.67-70.75-11.08-88.58,7-9.78,10-16.11,24.32-12.08,41.35,8.05,40.54,52.92,25.13,73.62,39.73,20.71,14.32,6.33,60-44.29,44-29.91-9.46-12.07-26.21-24.15-33" transform="translate(-312.02 -532.41)"/><path class="cls-1" d="M1119.59,654.84c6.33,1.89,24.74,2.43,30.49,0-2.88-5.14,1.15-.27-3.45-3.24l-6.33-3.79,5.18-18.65,35.09-.54,6.32,19.19c-12.08,7.84-5.75.81-9.78,7,7.48,3.24,33.94,2.7,41.42,0-9.21-13.52-1.73,11.62-25.89-45.14-10.35-25.4-13.23-44.59-27-45.13-17.26,17.84-21.28,69.46-43.14,87.84Zm42.57-65.41c5.75,8.38,10.93,21.35,14.38,30.54l-26.46,1.09Z" transform="translate(-312.02 -532.41)"/><path class="cls-1" d="M1683.29,565.92c2.87,7.84,2.3,2.43,10.35,7.3,2.88,19.46,2.3,55.13.58,74.59-6.33,4.33-7.48,1.89-10.93,7,7.47,4,38,3,44.29,0-5.18-8.38-4-.54-12.66-7L1713.77,613c38,0,13.81,6.75,29.34,11.89l.57-28.65c-16.1,5.14,9.2,9.46-29.91,9.73l.58-32.16,27-.27c5.75,9.19-1.73,7,6.33,13,3.45-4.86,4.6-14.05,3.45-21.08Z" transform="translate(-312.02 -532.41)"/><path class="cls-1" d="M2142.29,656.46l31.06-.27c-4-10.54-8.62,5.68-8.62-26.22,0-11.35-1.73-27.83,2.3-36.75,10.35-1.08,19.55,1.08,19.55,11.62,0,11.89-10.35,11.89-17.25,15.95,5.75,11.08,15.53,24.32,23,35.4l19-.27-24.74-35.13c8.06-7.57,19-7.57,12.66-30.27-16.68-7-36.24-3.25-57.52-4.33,6.9,12.43,8.63-8.65,8.63,34.6,0,15.13,2.3,21.62-2.88,29.72-5.75,8.11-1.73-5.13-5.18,6" transform="translate(-312.02 -532.41)"/><path class="cls-1" d="M1994.47,593.49c.57,9.19,2.3,48.11-1.15,55.67-1.73,4.6.57-.27-2.88,3.79-11.5,14.59,1.73-8.11-2.87,3.51l30.48-.27c-4.6-11.35,8.63,11.62-3.45-3.24-9.78-12.71-4.6-43.25-4-60a48.62,48.62,0,0,1,18.41,2.7c6.9,18.92-1.73,18.65-14.38,25.14l23,35.67c27-1.08,23,9.19-5.76-35.67,0,0,27.61-19.73,8.63-31.9-6.32-4-44.86-3.24-53.49-1.35,3.45,4.33,2.3,1.89,7.48,6" transform="translate(-312.02 -532.41)"/><path class="cls-1" d="M1846.64,593.49l-.57,52.43c-1.15,4.86-1.15,3.51-3.45,6,0,.54-1.73,2.16-1.73,2.43-.58.27-1.15.81-1.15,1.08-.58.27-1.15.81-1.15,1.08l23-.27s-.58-1.08-1.15-.81l-2.3-2.43c-8.63-10.27-4.61-24.33-4.61-47.3,6.33,3.78,32.21,35.14,37.39,42.16,4.6,6.49,5.75,9.46,17.26,9.73V595.92c1.15-4.32,5.17-3.78,9.2-9.19l-24.73-.27c4.6,8.11,0,.27,8.63,7l.57,42.7-43.14-49.46-20.71-.27c5.76,8.65,1.15.27,8.63,7" transform="translate(-312.02 -532.41)"/><path class="cls-1" d="M1383,593.49c0,85.94-1.72,43.78-8.62,63l23.58-.54c-5.18-15.95-8.63,23.24-8-51.08,19,11.62,31.06,48.92,53.49,53.24l1.15-62.16c5.75-12.16,2.88,1.35,8.63-9.73l-24.16.54c2.3,4.06-.58.54,2.88,3.24l4.6,2.71c0,.27.57.54,1.15.81l.57,41.89c-5.17-2.7-1.72-.54-6.32-4.6l-15-18.64c-6.9-8.38-16.1-16.49-20.13-25.68h-22.43c4.6,8.38,0,.54,8.62,7" transform="translate(-312.02 -532.41)"/><path class="cls-1" d="M1296.75,651.87c1.73-27.3-2.3-10.55,5.18-24.33-9.78,0-25.31-1.89-31.06,2.16l10.93,3.79.57,14.32c-38,24.05-61.54-51.08-19-56.48,27-3.52,20.71,10.54,29.91,15.4l2.88-17.57c-32.79-7.56-71.32-4.86-71.32,31.63-.58,38.91,38.53,40,71.89,31.08" transform="translate(-312.02 -532.41)"/><path class="cls-1" d="M1319.19,593.49v51.89c-2.3,10.27-2.3,3.78-5.18,10.81l50,.27c1.73-7.57,2.88-12.43,1.15-17.3l-6.9,10.54-23.58.54-.58-26.75c30.49-2.7,12.08,3.51,23.59,8.11l.57-22.71c-13.8,6,10.93-7-5.18,4.33-6.32,4.32-2.3,3.51-19.55,3l1.15-23.24,24.16,4.86c4,4.87-1.73,1.35,4.6,4.33l2.3-15.68-55.22.27c4.6,8.11,0,0,8.63,6.76" transform="translate(-312.02 -532.41)"/><path class="cls-1" d="M1764.39,595.92c0,31.89-8.63,61.62,28.76,61.62,15.53,0,25.88-4.32,28.76-17.3,1.72-9.46,1.15-35.4,1.72-46.75,6.33-5.41,2.88,0,7.48-6.76H1807c4.61,7,1.15.81,9.21,6.76.57,13,3.45,44.59-5.18,51.62-5.75,4.59-17.83,5.4-25.31,1.35-10.93-6.22-6.9-40.27-6.33-53l8.63-5.41-32.78-1.62c5.75,10.27,2.87-2.43,9.2,9.46" transform="translate(-312.02 -532.41)"/><path class="cls-1" d="M1927.17,656.46l49.47-.27,3.45-17.3c-9.78,4.06-2.3.54-8.06,10.54l-24.15.81L1947.3,623c18.41-.54,13.23-1.35,19,3.78,6.33,5.95-4,1.89,5.18,4.33l.57-21.63c-5.75,1.63-1.72.82-4,2.71-8.06,5.67-7.48,4.86-21.28,4.05l1.15-22.43,21.85-1.08c6.33,9.46-1.15,5.94,6.91,9.46l2.3-15.68-54.65.27c7.48,11.35,5.75-3.78,8.63,11.62v41.89c-1.15,10.81-3.45,9.19-5.75,16.22" transform="translate(-312.02 -532.41)"/><path class="cls-1" d="M2061.19,656.19h23.58c-4.6-12.16-9.78,4-4-20.54h27.61c2.87,11.89,5.17,10.54,1.15,16.22-10.93,17.29,0-5.14-4,4.59l31.64-.27c-2.31-5.68-5.18-1.08-10.93-14.87l-16.68-38.1c-13.23-33.24-14.38-16.49-29.34,18.92-2.87,7.29-5.18,13.78-8.05,19.46-6.33,13.78-8,6.75-10.93,14.59m33.94-49.46,9.2,23.24-20.13-1.08Z" transform="translate(-312.02 -532.41)"/><path class="cls-1" d="M1574.57,656.19h23c-4-12.16-9.78,4.32-4-20.54h27.61c4.6,17.3,5.75,11.08-1.16,19.73-.57.27-1.15.54-1.15,1.08l31.06-.27c-1.72-5.68,1.16.81-2.87-3-9.2-9.73-8.63-13-16.11-31.08-2.87-6.76-5.17-12.17-8-18.92-8.05-19.19-5.18-14.33-10.93-17-6.9,2.7-2.87-3.78-10.93,16.76-4,10.81-15,39.73-21.28,46.75-6.33,7.3-2.87-1.35-5.18,6.49m31.64-49.46,11.5,23-20.7-.27Z" transform="translate(-312.02 -532.41)"/><path class="cls-1" d="M2257.33,656.46l23-.27c-2.3-5.14.57.54-2.88-3.51-4-4.87.58,3.51-4.6-4.87l9.78-11.89a50.06,50.06,0,0,1,6.33-.54c4.6,0,10.35.27,15.53.27,9.2,31.08,1.15,7.57-2.88,20.54l31.64-.27c-1.73-5.41-5.75-2.16-10.93-13.78l-26.46-55.95c-9.78,2.7-11.5,16.49-19.56,35.41-3.45,7.83-8,21.35-12.65,27.83-4.6,5.41-4.6,2.44-6.33,7m33.36-50.81,9.78,24.05h-20.71Z" transform="translate(-312.02 -532.41)"/><path class="cls-1" d="M1527.41,646.73c-4,.27-51.77,16.76-51.19-28.11,0-14.86,6.9-24.32,18.4-27,27.61-6,27,11.89,29.34,14.59l4.6-17c-32.21-6.21-70.18-4.86-68.45,33.79,2.3,42.43,60.4,41.08,67.3,23.78" transform="translate(-312.02 -532.41)"/><path class="cls-1" d="M1543.51,593.49l-.57,53.78c-3.45,10-4.6.54-7.48,9.19l31.06-.27c-4-11.08-8.63,7.84-8-33.24,0-6.22-1.15-16.76-.58-22.44,2.3-17.56,2.3-3,9.21-14.32l-32.21.27c4.6,8.38,0,.27,8.62,7" transform="translate(-312.02 -532.41)"/><path class="cls-1" d="M1401.44,787.81c14.38-.27,23.58-13.79,33.94-20.27,14.95,6.22,16.1,19.73,33.93,20.27-3.45-6.76-10.35-15.95-14.38-21.35-5.17-6.76-9.77-16.49-19.55-16-8.63.54-29.34,28.92-33.94,37.3" transform="translate(-312.02 -532.41)"/><path class="cls-1" d="M1326.66,581.87c9.78-2.71,6.91-5.14,16.11-8.92,4.6,2.7,8.63,7.57,15,8.38-15-29.46-22.44-13.79-31.07.54" transform="translate(-312.02 -532.41)"/><path class="cls-1" d="M2088.22,581.6c5.76-.81,20.71-7.57,21.29-11.35,2.87-9.46.57-1.63-1.15-4.87-7.48-.81-16.69,10.27-20.14,16.22" transform="translate(-312.02 -532.41)"/><path class="cls-1" d="M2226.48,593.49l-.57,53.78c-3.46,10-4.61.54-7.48,9.19l31.06-.27c-4-11.08-8.63,7.84-8-33.24,0-6.22-1.15-16.76-.58-22.44,2.3-17.56,2.3-3,9.2-14.32l-32.21.27c4.6,8.38,0,.27,8.63,7" transform="translate(-312.02 -532.41)"/></svg>