<?xml version="1.0" encoding="utf-8"?>
<!-- Generator: Adobe Illustrator 23.1.1, SVG Export Plug-In . SVG Version: 6.00 Build 0)  -->
<svg version="1.1" id="Camada_1" xmlns="http://www.w3.org/2000/svg" xmlns:xlink="http://www.w3.org/1999/xlink" x="0px" y="0px"
	 viewBox="0 0 2653.33 1866.67" style="enable-background:new 0 0 2653.33 1866.67;" xml:space="preserve">
<style type="text/css">
	.st0{fill:#3F4040;}
	.st1{font-family:'UniviaPro-Bold';}
	.st2{font-size:247.6853px;}
</style>
<g>
	<polygon class="st0" points="516.39,551.97 153.99,796.11 516.39,1039 1005.15,1039 1005.15,919.55 1184.5,1039 1611.8,1039 
		1248.79,795.48 1288.63,769.34 1692.03,1039 1851.95,1039 1851.95,551.97 1610.31,553.88 1609.25,674.93 1428.29,551.97 
		1183.57,551.97 1004.19,675.78 1002.97,551.97 758.31,715.51 759.23,872.65 600.56,767.84 922.71,554.44 	"/>
	<polygon class="st0" points="1934.14,551.97 2298.61,795.48 1934.14,1039 2133.53,1039 2499.34,795.48 2134.45,551.97 	"/>
</g>
<text transform="matrix(1 0 0 1 490.1166 1374.4174)" class="st0 st1 st2">AUTOMOTIVE</text>
</svg>
