<?xml version="1.0" encoding="utf-8"?>
<!-- Generator: Adobe Illustrator 23.1.1, SVG Export Plug-In . SVG Version: 6.00 Build 0)  -->
<svg version="1.1" id="Camada_1" xmlns="http://www.w3.org/2000/svg" xmlns:xlink="http://www.w3.org/1999/xlink" x="0px" y="0px"
	 viewBox="0 0 2653.33 1866.67" style="enable-background:new 0 0 2653.33 1866.67;" xml:space="preserve">
<style type="text/css">
	.st0{fill-rule:evenodd;clip-rule:evenodd;fill:#3F4040;}
	.st1{fill:#3F4040;}
</style>
<g>
	<path class="st0" d="M1824.32,724.47c-55.28-16.88-151.37-0.81-184.19,44.04c33.97,1.38,74.03-17.54,120.19-14.3
		c-19.19,65.28-115.41,127.85-182.65,142.55c-70.36,15.38-221.66,19.79-230.34-78.54c-7.26-82.17,77.62-146.67,116.34-213.39
		c22.25-38.35,37.17-83.1,36.21-127.83c-0.63-29.27-22.36-103.61-50.84-114.46c-0.96,8.38,18.35,50.8,21.01,68.7
		c4.31,29.12,2.27,60.01-7.54,87.85c-54.29,153.93-251.12,251.19-127.5,377.22c92.6,94.4,305.63,57.93,419.71-54.47
		C1774.73,822.1,1831.54,750.87,1824.32,724.47z"/>
	<path class="st1" d="M1824.32,724.47c-55.28-16.88-151.37-0.81-184.19,44.04c33.97,1.38,74.03-17.54,120.19-14.3
		c-19.19,65.28-115.41,127.85-182.65,142.55c-70.36,15.38-221.66,19.79-230.34-78.54c-7.26-82.17,77.62-146.67,116.34-213.39
		c22.25-38.35,37.17-83.1,36.21-127.83c-0.63-29.27-22.36-103.61-50.84-114.46c-0.96,8.38,18.35,50.8,21.01,68.7
		c4.31,29.12,2.27,60.01-7.54,87.85c-54.29,153.93-251.12,251.19-127.5,377.22c92.6,94.4,305.63,57.93,419.71-54.47
		C1774.73,822.1,1831.54,750.87,1824.32,724.47z"/>
	<path class="st0" d="M1230.22,897.09c-73.97,5.48-283.37-44.36-285.3-136.09c72.23-14.92,139.65,31.29,173.96,37.64
		c-40.18-48.1-162.09-104.96-227.28-83.76c-14.95,130.83,145.87,202.84,262.03,220.06c34.54,5.12,126.95,9.76,156.38-0.5
		c-21.86-42.88-48.28-50.37-57.68-113.5c-14.74-98.95,59.38-202.21,23.44-302.45c-8.87-24.73-51.15-96.48-74.32-98.56
		c49.41,79.05,69.83,105.23,34.43,229.06c-19.36,67.73-42.07,125.92-25.37,193.57C1214.64,859.28,1229.53,883.65,1230.22,897.09z"/>
	<path class="st1" d="M1230.22,897.09c-73.97,5.48-283.37-44.36-285.3-136.09c72.23-14.92,139.65,31.29,173.96,37.64
		c-40.18-48.1-162.09-104.96-227.28-83.76c-14.95,130.83,145.87,202.84,262.03,220.06c34.54,5.12,126.95,9.76,156.38-0.5
		c-21.86-42.88-48.28-50.37-57.68-113.5c-14.74-98.95,59.38-202.21,23.44-302.45c-8.87-24.73-51.15-96.48-74.32-98.56
		c49.41,79.05,69.83,105.23,34.43,229.06c-19.36,67.73-42.07,125.92-25.37,193.57C1214.64,859.28,1229.53,883.65,1230.22,897.09z"/>
	<path class="st0" d="M1358.03,470.8c-50.97,16.76-38.38,127.46,19.63,111.82C1428.81,568.84,1413.25,452.64,1358.03,470.8z"/>
	<path class="st1" d="M1358.03,470.8c-50.97,16.76-38.38,127.46,19.63,111.82C1428.81,568.84,1413.25,452.64,1358.03,470.8z"/>
	<path class="st1" d="M1897.71,1174.59l-18.66,184.36c-4.21,41.84-10.64,73.68-19.46,95.54c-8.74,21.86-22.95,41.6-42.49,59.09
		c-28.75,25.6-60.99,38.48-96.73,38.48c-7.15,0-16.28-1.87-27.48-5.7l30.97-27.86c13.18,4.29,25.18,6.4,35.82,6.4
		c45.82,0,72.27-33.95,79.42-101.86l6.04-56.82l19.46-191.62h-42.09l26.68-27.16h18.42l1.35-13.27
		c5.56-56.43,22.08-100.45,49.48-131.99c27.4-31.46,62.74-47.22,106.1-47.22c8.18,0,17.39,0.78,27.64,2.26l-32.48,31.53
		c-11.59-4.45-22.95-6.64-34.15-6.64c-26.6,0-45.5,9.05-56.78,27.24c-11.36,18.19-19.54,53-24.62,104.44l-3.49,33.64h93.87
		l-27.64,27.16H1897.71z"/>
	<path class="st1" d="M1897.71,1174.59l-18.66,184.36c-4.21,41.84-10.64,73.68-19.46,95.54c-8.74,21.86-22.95,41.6-42.49,59.09
		c-28.75,25.6-60.99,38.48-96.73,38.48c-7.15,0-16.28-1.87-27.48-5.7l30.97-27.86c13.18,4.29,25.18,6.4,35.82,6.4
		c45.82,0,72.27-33.95,79.42-101.86l6.04-56.82l19.46-191.62h-42.09l26.68-27.16h18.42l1.35-13.27
		c5.56-56.43,22.08-100.45,49.48-131.99c27.4-31.46,62.74-47.22,106.1-47.22c8.18,0,17.39,0.78,27.64,2.26l-32.48,31.53
		c-11.59-4.45-22.95-6.64-34.15-6.64c-26.6,0-45.5,9.05-56.78,27.24c-11.36,18.19-19.54,53-24.62,104.44l-3.49,33.64h93.87
		l-27.64,27.16H1897.71z"/>
	<path class="st1" d="M1818.21,1039.93c0-2.26-0.78-4.53-2.26-6.64c-11.01,12.33-25.05,22.01-42.15,29.04l-19.28,47.3
		C1796.98,1083.56,1818.21,1060.3,1818.21,1039.93z M1761.15,1334.43c-3.82,0-5.7-3.28-5.7-9.83c0-4.92,1.02-14.6,2.97-29.04
		l2.34-14.67l9.37-65.33c1.48-11.16,2.34-17.33,2.5-18.58l2.11-15.3c1.17-9.45,1.79-15.69,1.79-18.73c0-15.85-5.7-23.81-17.09-23.81
		c-10.23,0-23.89,7.88-41.06,23.57c-17.09,15.69-25.68,28.18-25.68,37.47c0,2.65,1.4,5.23,4.29,7.81
		c13.58-26.23,26.3-39.34,38.09-39.34c4.21,0,6.32,3.82,6.32,11.47c0,3.59-0.39,8.12-1.17,13.43l-1.79,12.57l-2.26,15.85
		l-8.98,62.21c-4.61,32.16-6.87,51.36-6.87,57.6c0,14.75,5.54,22.17,16.7,22.17c15.22,0,31.77-11.01,49.57-32.94
		c13.27-16.24,19.9-27.08,19.9-32.55c0-2.26-2.03-4.68-6.09-7.1C1786.91,1320.07,1773.8,1334.43,1761.15,1334.43z"/>
	<path class="st1" d="M1818.21,1039.93c0-2.26-0.78-4.53-2.26-6.64c-11.01,12.33-25.05,22.01-42.15,29.04l-19.28,47.3
		C1796.98,1083.56,1818.21,1060.3,1818.21,1039.93z M1761.15,1334.43c-3.82,0-5.7-3.28-5.7-9.83c0-4.92,1.02-14.6,2.97-29.04
		l2.34-14.67l9.37-65.33c1.48-11.16,2.34-17.33,2.5-18.58l2.11-15.3c1.17-9.45,1.79-15.69,1.79-18.73c0-15.85-5.7-23.81-17.09-23.81
		c-10.23,0-23.89,7.88-41.06,23.57c-17.09,15.69-25.68,28.18-25.68,37.47c0,2.65,1.4,5.23,4.29,7.81
		c13.58-26.23,26.3-39.34,38.09-39.34c4.21,0,6.32,3.82,6.32,11.47c0,3.59-0.39,8.12-1.17,13.43l-1.79,12.57l-2.26,15.85
		l-8.98,62.21c-4.61,32.16-6.87,51.36-6.87,57.6c0,14.75,5.54,22.17,16.7,22.17c15.22,0,31.77-11.01,49.57-32.94
		c13.27-16.24,19.9-27.08,19.9-32.55c0-2.26-2.03-4.68-6.09-7.1C1786.91,1320.07,1773.8,1334.43,1761.15,1334.43z"/>
	<path class="st1" d="M2022.81,1192.06c11.63-15.61,24.54-23.42,38.9-23.42c19.79,0,29.72,8.9,29.72,26.69
		c0,15.61-7.73,29.11-23.27,40.74c-15.46,11.55-33.55,17.33-54.18,17.33c-3.99,0-8.41-0.78-13.25-2.26
		C2003.87,1227.34,2011.26,1207.67,2022.81,1192.06z M2047.95,1334.43c-28.2,0-43.91-18.42-47.22-55.26
		c33.97-8.35,62.76-23.26,86.37-44.57c23.61-21.31,35.41-43.16,35.41-65.57c0-19.9-10.11-29.89-30.4-29.89
		c-28.03,0-56.39,17.8-85.1,53.39c-28.62,35.59-42.97,70.8-42.97,105.53c0,19.2,5.52,34.97,16.47,47.38
		c10.96,12.33,24.88,18.5,41.87,18.5c27.69,0,55.8-15.06,84.16-45.27c10.62-11.47,15.97-19.51,15.97-24.27
		c0-3.51-2.04-6.56-6.2-9.13C2098.56,1318.04,2075.8,1334.43,2047.95,1334.43z"/>
	<path class="st1" d="M2022.81,1192.06c11.63-15.61,24.54-23.42,38.9-23.42c19.79,0,29.72,8.9,29.72,26.69
		c0,15.61-7.73,29.11-23.27,40.74c-15.46,11.55-33.55,17.33-54.18,17.33c-3.99,0-8.41-0.78-13.25-2.26
		C2003.87,1227.34,2011.26,1207.67,2022.81,1192.06z M2047.95,1334.43c-28.2,0-43.91-18.42-47.22-55.26
		c33.97-8.35,62.76-23.26,86.37-44.57c23.61-21.31,35.41-43.16,35.41-65.57c0-19.9-10.11-29.89-30.4-29.89
		c-28.03,0-56.39,17.8-85.1,53.39c-28.62,35.59-42.97,70.8-42.97,105.53c0,19.2,5.52,34.97,16.47,47.38
		c10.96,12.33,24.88,18.5,41.87,18.5c27.69,0,55.8-15.06,84.16-45.27c10.62-11.47,15.97-19.51,15.97-24.27
		c0-3.51-2.04-6.56-6.2-9.13C2098.56,1318.04,2075.8,1334.43,2047.95,1334.43z"/>
	<path class="st1" d="M1344.55,1354.41l40.95-29.5c12.51,2.11,23.1,3.43,31.69,3.82c18.68-6.71,31.86-18.34,39.53-34.89
		c7.59-16.63,11.42-41.76,11.42-75.56l1-35.51c0-45.66,16.6-81.41,49.87-107.25c27.69-21.39,56.88-32.08,87.74-32.08
		c13.18,0,26.69,2.89,40.53,8.59l-36.2,33.56c-14.76-9.05-29.44-13.58-43.95-13.58c-36.28,0-54.46,27.87-54.46,83.52l-1,31.53
		c0,43.24-4.42,74.85-13.18,94.91c-8.84,20.06-25.69,36.61-50.62,49.72l50.62,3.9l22.43,1.56l27.19,1.56
		c7.17,0.47,15.18,0.7,24.19,0.7c40.37,0,71.97-10.93,94.58-32.78c2.58,3.04,3.92,5.23,3.92,6.63c0,5-7.84,13.58-23.43,25.76
		c-26.69,20.53-55.38,30.83-85.98,30.83c-12.51,0-27.94-0.63-46.12-1.87l-72.56-5.15
		C1404.93,1360.19,1372.24,1357.38,1344.55,1354.41z"/>
	<path class="st1" d="M1344.55,1354.41l40.95-29.5c12.51,2.11,23.1,3.43,31.69,3.82c18.68-6.71,31.86-18.34,39.53-34.89
		c7.59-16.63,11.42-41.76,11.42-75.56l1-35.51c0-45.66,16.6-81.41,49.87-107.25c27.69-21.39,56.88-32.08,87.74-32.08
		c13.18,0,26.69,2.89,40.53,8.59l-36.2,33.56c-14.76-9.05-29.44-13.58-43.95-13.58c-36.28,0-54.46,27.87-54.46,83.52l-1,31.53
		c0,43.24-4.42,74.85-13.18,94.91c-8.84,20.06-25.69,36.61-50.62,49.72l50.62,3.9l22.43,1.56l27.19,1.56
		c7.17,0.47,15.18,0.7,24.19,0.7c40.37,0,71.97-10.93,94.58-32.78c2.58,3.04,3.92,5.23,3.92,6.63c0,5-7.84,13.58-23.43,25.76
		c-26.69,20.53-55.38,30.83-85.98,30.83c-12.51,0-27.94-0.63-46.12-1.87l-72.56-5.15
		C1404.93,1360.19,1372.24,1357.38,1344.55,1354.41z"/>
	<path class="st1" d="M1291.99,1201.19c-5.87,37.54-22.63,70.17-50.36,98.04c-20.45,20.68-37.96,30.99-52.46,30.99
		c-12.57,0-18.85-9.91-18.85-29.66c0-38.48,7.71-70.64,23.21-96.63c15.5-25.99,34.61-39.03,57.4-39.03c15.17,0,30.17,3.9,45,11.63
		L1291.99,1201.19z M1279.25,1284.09l-3.18,20.14l-2.43,18.26c-1.17,8.12-1.76,14.44-1.76,19.05c0,14.91,5.95,22.4,17.93,22.4
		c16.42,0,34.19-11.01,53.46-32.94c14.08-16.24,21.12-27.01,21.12-32.31c0-2.42-2.18-4.92-6.62-7.34
		c-14.33,28.72-28.32,43.09-42.07,43.09c-4.11,0-6.12-3.28-6.12-9.83c0-4.92,1.09-14.6,3.18-29.04l2.18-14.67l15.67-101.16
		c0.17-1.41,1.26-6.24,3.18-14.67l2.93-12.1c0.17-0.63,0.67-2.34,1.51-5.07c-11.9-3.98-26.4-5.93-43.41-5.93
		c-44.58,0-83.21,16.94-115.81,50.89c-32.6,33.95-48.94,74.15-48.94,120.52c0,33.72,11.14,50.58,33.52,50.58
		c16.26,0,35.45-9.05,57.57-27.08c22.12-18.11,42.32-41.37,60.75-69.7L1279.25,1284.09z"/>
	<path class="st1" d="M1291.99,1201.19c-5.87,37.54-22.63,70.17-50.36,98.04c-20.45,20.68-37.96,30.99-52.46,30.99
		c-12.57,0-18.85-9.91-18.85-29.66c0-38.48,7.71-70.64,23.21-96.63c15.5-25.99,34.61-39.03,57.4-39.03c15.17,0,30.17,3.9,45,11.63
		L1291.99,1201.19z M1279.25,1284.09l-3.18,20.14l-2.43,18.26c-1.17,8.12-1.76,14.44-1.76,19.05c0,14.91,5.95,22.4,17.93,22.4
		c16.42,0,34.19-11.01,53.46-32.94c14.08-16.24,21.12-27.01,21.12-32.31c0-2.42-2.18-4.92-6.62-7.34
		c-14.33,28.72-28.32,43.09-42.07,43.09c-4.11,0-6.12-3.28-6.12-9.83c0-4.92,1.09-14.6,3.18-29.04l2.18-14.67l15.67-101.16
		c0.17-1.41,1.26-6.24,3.18-14.67l2.93-12.1c0.17-0.63,0.67-2.34,1.51-5.07c-11.9-3.98-26.4-5.93-43.41-5.93
		c-44.58,0-83.21,16.94-115.81,50.89c-32.6,33.95-48.94,74.15-48.94,120.52c0,33.72,11.14,50.58,33.52,50.58
		c16.26,0,35.45-9.05,57.57-27.08c22.12-18.11,42.32-41.37,60.75-69.7L1279.25,1284.09z"/>
	<path class="st1" d="M1040.16,1172.39l-12.09,100.22c-2.2,18.03-3.21,31.3-3.21,39.96c0,17.09,6.34,25.6,19.02,25.6
		c13.61,0,27.81-10.15,42.43-30.44c2.45,2.89,3.72,5.46,3.72,7.73c0,8.59-8.12,18.81-24.35,30.68
		c-16.23,11.86-30.26,17.8-41.92,17.8c-23.41,0-35.16-13.82-35.16-41.45c0-10.15,1.44-26.62,4.23-49.41l11.83-100.69h-52.07
		l28.91-27.16h26.46l5.24-41.68l36.6-11.24l-6.17,52.92h104.73l-28.99,27.16H1040.16z"/>
	<path class="st1" d="M1040.16,1172.39l-12.09,100.22c-2.2,18.03-3.21,31.3-3.21,39.96c0,17.09,6.34,25.6,19.02,25.6
		c13.61,0,27.81-10.15,42.43-30.44c2.45,2.89,3.72,5.46,3.72,7.73c0,8.59-8.12,18.81-24.35,30.68
		c-16.23,11.86-30.26,17.8-41.92,17.8c-23.41,0-35.16-13.82-35.16-41.45c0-10.15,1.44-26.62,4.23-49.41l11.83-100.69h-52.07
		l28.91-27.16h26.46l5.24-41.68l36.6-11.24l-6.17,52.92h104.73l-28.99,27.16H1040.16z"/>
	<path class="st1" d="M963.18,1039.93c0-2.26-0.81-4.53-2.35-6.64c-11.42,12.33-25.99,22.01-43.73,29.04l-20,47.3
		C941.16,1083.56,963.18,1060.3,963.18,1039.93z M903.99,1334.43c-3.97,0-5.91-3.28-5.91-9.83c0-4.92,1.05-14.6,3.08-29.04
		l2.43-14.67l9.72-65.33c1.54-11.16,2.43-17.33,2.59-18.58l2.19-15.3c1.21-9.45,1.86-15.69,1.86-18.73
		c0-15.85-5.91-23.81-17.73-23.81c-10.61,0-24.78,7.88-42.6,23.57c-17.73,15.69-26.64,28.18-26.64,37.47c0,2.65,1.46,5.23,4.45,7.81
		c14.09-26.23,27.29-39.34,39.52-39.34c4.37,0,6.56,3.82,6.56,11.47c0,3.59-0.4,8.12-1.21,13.43l-1.86,12.57l-2.35,15.85
		l-9.31,62.21c-4.78,32.16-7.13,51.36-7.13,57.6c0,14.75,5.75,22.17,17.33,22.17c15.79,0,32.96-11.01,51.42-32.94
		c13.77-16.24,20.65-27.08,20.65-32.55c0-2.26-2.11-4.68-6.32-7.1C930.71,1320.07,917.11,1334.43,903.99,1334.43z"/>
	<path class="st1" d="M963.18,1039.93c0-2.26-0.81-4.53-2.35-6.64c-11.42,12.33-25.99,22.01-43.73,29.04l-20,47.3
		C941.16,1083.56,963.18,1060.3,963.18,1039.93z M903.99,1334.43c-3.97,0-5.91-3.28-5.91-9.83c0-4.92,1.05-14.6,3.08-29.04
		l2.43-14.67l9.72-65.33c1.54-11.16,2.43-17.33,2.59-18.58l2.19-15.3c1.21-9.45,1.86-15.69,1.86-18.73
		c0-15.85-5.91-23.81-17.73-23.81c-10.61,0-24.78,7.88-42.6,23.57c-17.73,15.69-26.64,28.18-26.64,37.47c0,2.65,1.46,5.23,4.45,7.81
		c14.09-26.23,27.29-39.34,39.52-39.34c4.37,0,6.56,3.82,6.56,11.47c0,3.59-0.4,8.12-1.21,13.43l-1.86,12.57l-2.35,15.85
		l-9.31,62.21c-4.78,32.16-7.13,51.36-7.13,57.6c0,14.75,5.75,22.17,17.33,22.17c15.79,0,32.96-11.01,51.42-32.94
		c13.77-16.24,20.65-27.08,20.65-32.55c0-2.26-2.11-4.68-6.32-7.1C930.71,1320.07,917.11,1334.43,903.99,1334.43z"/>
	<path class="st1" d="M684.75,1327.8l-43.52,39.42c-6.62-48.47-18.33-103.5-35.04-165.01c-14.42-52.3-25.54-86.17-33.42-101.63
		c-7.8-15.53-18.07-23.26-30.62-23.26c-21.72,0-37.41,15.14-47,45.43c-6.11-1.25-8.99-4.29-8.65-9.13
		c0.51-9.52,6.79-23.1,18.83-40.74c14.59-21.39,33.17-32.08,55.65-32.08c18.58,0,32.92,7.73,43.18,23.26
		c10.26,15.45,22.14,47.38,35.54,95.62c14.93,54.25,26.81,102.56,35.63,145.1c72.45-93.51,108.59-158.68,108.42-195.53
		c0-14.28-6.28-24.74-18.83-31.38l36.65-37.08c16.63,8.59,24.94,21.78,24.94,39.65c0,22.56-19.94,63.15-59.89,121.61l-28.17,39.88
		l-20.36,29.5c-1.19,1.72-5.26,8.12-12.21,19.28l-11.45,18.5C692.81,1311.87,689.59,1318.04,684.75,1327.8z"/>
	<path class="st1" d="M684.75,1327.8l-43.52,39.42c-6.62-48.47-18.33-103.5-35.04-165.01c-14.42-52.3-25.54-86.17-33.42-101.63
		c-7.8-15.53-18.07-23.26-30.62-23.26c-21.72,0-37.41,15.14-47,45.43c-6.11-1.25-8.99-4.29-8.65-9.13
		c0.51-9.52,6.79-23.1,18.83-40.74c14.59-21.39,33.17-32.08,55.65-32.08c18.58,0,32.92,7.73,43.18,23.26
		c10.26,15.45,22.14,47.38,35.54,95.62c14.93,54.25,26.81,102.56,35.63,145.1c72.45-93.51,108.59-158.68,108.42-195.53
		c0-14.28-6.28-24.74-18.83-31.38l36.65-37.08c16.63,8.59,24.94,21.78,24.94,39.65c0,22.56-19.94,63.15-59.89,121.61l-28.17,39.88
		l-20.36,29.5c-1.19,1.72-5.26,8.12-12.21,19.28l-11.45,18.5C692.81,1311.87,689.59,1318.04,684.75,1327.8z"/>
</g>
</svg>
